<svg xmlns="http://www.w3.org/2000/svg" width="960" height="520" viewBox="0 0 960 520" role="img">
<style>
  .title { font: 700 24px sans-serif; fill: #1d252c; }
  .subtitle { font: 400 14px sans-serif; fill: #4b5563; }
  .axis { stroke: #28343d; stroke-width: 1.3; }
  .grid { stroke: #d7dde3; stroke-width: 1; }
  .tick { font: 12px sans-serif; fill: #51606d; }
  .label { font: 12px sans-serif; fill: #1d252c; }
  .value { font: 700 11px sans-serif; fill: #1d252c; }
</style>
<text x="86" y="38" class="title">Verifier Recovery Rate by Formula</text>
<text x="86" y="60" class="subtitle">recovered / total</text>
<line x1="86" y1="390" x2="924" y2="390" class="axis" />
<line x1="86" y1="76" x2="86" y2="390" class="axis" />
<line x1="81" y1="390.00" x2="924" y2="390.00" class="grid" />
<text x="74" y="394.00" class="tick" text-anchor="end">0</text>
<line x1="81" y1="311.50" x2="924" y2="311.50" class="grid" />
<text x="74" y="315.50" class="tick" text-anchor="end">0.25</text>
<line x1="81" y1="233.00" x2="924" y2="233.00" class="grid" />
<text x="74" y="237.00" class="tick" text-anchor="end">0.5</text>
<line x1="81" y1="154.50" x2="924" y2="154.50" class="grid" />
<text x="74" y="158.50" class="tick" text-anchor="end">0.75</text>
<line x1="81" y1="76.00" x2="924" y2="76.00" class="grid" />
<text x="74" y="80.00" class="tick" text-anchor="end">1</text>
<rect x="100.66" y="233.00" width="40.50" height="157.00" fill="#2f6f8f" rx="3" />
<text x="120.92" y="225.00" class="value" text-anchor="middle">50%</text>
<text x="120.92" y="412" class="label" text-anchor="end" transform="rotate(-35 120.92 412)">arrhenius</text>
<rect x="170.50" y="233.00" width="40.50" height="157.00" fill="#d1495b" rx="3" />
<text x="190.75" y="225.00" class="value" text-anchor="middle">50%</text>
<text x="190.75" y="412" class="label" text-anchor="end" transform="rotate(-35 190.75 412)">beer_lambert</text>
<rect x="240.33" y="390.00" width="40.50" height="0.00" fill="#4f8a3a" rx="3" />
<text x="260.58" y="382.00" class="value" text-anchor="middle">0%</text>
<text x="260.58" y="412" class="label" text-anchor="end" transform="rotate(-35 260.58 412)">damped_oscillator</text>
<rect x="310.17" y="76.00" width="40.50" height="314.00" fill="#7a5195" rx="3" />
<text x="330.42" y="68.00" class="value" text-anchor="middle">100%</text>
<text x="330.42" y="412" class="label" text-anchor="end" transform="rotate(-35 330.42 412)">exp</text>
<rect x="380.00" y="390.00" width="40.50" height="0.00" fill="#a5673f" rx="3" />
<text x="400.25" y="382.00" class="value" text-anchor="middle">0%</text>
<text x="400.25" y="412" class="label" text-anchor="end" transform="rotate(-35 400.25 412)">log</text>
<rect x="449.83" y="390.00" width="40.50" height="0.00" fill="#1f8a70" rx="3" />
<text x="470.08" y="382.00" class="value" text-anchor="middle">0%</text>
<text x="470.08" y="412" class="label" text-anchor="end" transform="rotate(-35 470.08 412)">logistic</text>
<rect x="519.66" y="233.00" width="40.50" height="157.00" fill="#2f6f8f" rx="3" />
<text x="539.92" y="225.00" class="value" text-anchor="middle">50%</text>
<text x="539.92" y="412" class="label" text-anchor="end" transform="rotate(-35 539.92 412)">michaelis_menten</text>
<rect x="589.50" y="390.00" width="40.50" height="0.00" fill="#d1495b" rx="3" />
<text x="609.75" y="382.00" class="value" text-anchor="middle">0%</text>
<text x="609.75" y="412" class="label" text-anchor="end" transform="rotate(-35 609.75 412)">planck</text>
<rect x="659.33" y="233.00" width="40.50" height="157.00" fill="#4f8a3a" rx="3" />
<text x="679.58" y="225.00" class="value" text-anchor="middle">50%</text>
<text x="679.58" y="412" class="label" text-anchor="end" transform="rotate(-35 679.58 412)">radioactive_decay</text>
<rect x="729.16" y="233.00" width="40.50" height="157.00" fill="#7a5195" rx="3" />
<text x="749.42" y="225.00" class="value" text-anchor="middle">50%</text>
<text x="749.42" y="412" class="label" text-anchor="end" transform="rotate(-35 749.42 412)">scaled_exp_fast_decay</text>
<rect x="799.00" y="233.00" width="40.50" height="157.00" fill="#a5673f" rx="3" />
<text x="819.25" y="225.00" class="value" text-anchor="middle">50%</text>
<text x="819.25" y="412" class="label" text-anchor="end" transform="rotate(-35 819.25 412)">scaled_exp_growth</text>
<rect x="868.83" y="233.00" width="40.50" height="157.00" fill="#1f8a70" rx="3" />
<text x="889.08" y="225.00" class="value" text-anchor="middle">50%</text>
<text x="889.08" y="412" class="label" text-anchor="end" transform="rotate(-35 889.08 412)">shockley</text>
</svg>