<svg xmlns="http://www.w3.org/2000/svg" width="960" height="520" viewBox="0 0 960 520" role="img">
<style>
  .title { font: 700 24px sans-serif; fill: #1d252c; }
  .subtitle { font: 400 14px sans-serif; fill: #4b5563; }
  .axis { stroke: #28343d; stroke-width: 1.3; }
  .grid { stroke: #d7dde3; stroke-width: 1; }
  .tick { font: 12px sans-serif; fill: #51606d; }
  .label { font: 12px sans-serif; fill: #1d252c; }
  .value { font: 700 11px sans-serif; fill: #1d252c; }
</style>
<text x="86" y="38" class="title">Training Loss Before and After Snap</text>
<text x="86" y="60" class="subtitle">-log10(loss), higher is lower loss</text>
<line x1="86" y1="390" x2="924" y2="390" class="axis" />
<line x1="86" y1="76" x2="86" y2="390" class="axis" />
<line x1="81" y1="390.00" x2="924" y2="390.00" class="grid" />
<text x="74" y="394.00" class="tick" text-anchor="end">0</text>
<line x1="81" y1="311.50" x2="924" y2="311.50" class="grid" />
<text x="74" y="315.50" class="tick" text-anchor="end">4</text>
<line x1="81" y1="233.00" x2="924" y2="233.00" class="grid" />
<text x="74" y="237.00" class="tick" text-anchor="end">8</text>
<line x1="81" y1="154.50" x2="924" y2="154.50" class="grid" />
<text x="74" y="158.50" class="tick" text-anchor="end">12</text>
<line x1="81" y1="76.00" x2="924" y2="76.00" class="grid" />
<text x="74" y="80.00" class="tick" text-anchor="end">16</text>
<rect x="93.33" y="390.00" width="20.25" height="0.00" fill="#2f6f8f" rx="3" />
<text x="103.46" y="382.00" class="value" text-anchor="middle">4.3e+00</text>
<text x="103.46" y="412" class="label" text-anchor="end" transform="rotate(-35 103.46 412)">exp s0 best</text>
<rect x="128.25" y="390.00" width="20.25" height="0.00" fill="#d1495b" rx="3" />
<text x="138.38" y="382.00" class="value" text-anchor="middle">6.7e+00</text>
<text x="138.38" y="412" class="label" text-anchor="end" transform="rotate(-35 138.38 412)">exp s0 snap</text>
<rect x="163.17" y="343.87" width="20.25" height="46.13" fill="#4f8a3a" rx="3" />
<text x="173.29" y="335.87" class="value" text-anchor="middle">4.5e-03</text>
<text x="173.29" y="412" class="label" text-anchor="end" transform="rotate(-35 173.29 412)">exp s1 best</text>
<rect x="198.08" y="76.00" width="20.25" height="314.00" fill="#7a5195" rx="3" />
<text x="208.21" y="68.00" class="value" text-anchor="middle">0.0e+00</text>
<text x="208.21" y="412" class="label" text-anchor="end" transform="rotate(-35 208.21 412)">exp s1 snap</text>
<rect x="233.00" y="390.00" width="20.25" height="0.00" fill="#a5673f" rx="3" />
<text x="243.12" y="382.00" class="value" text-anchor="middle">1.6e+00</text>
<text x="243.12" y="412" class="label" text-anchor="end" transform="rotate(-35 243.12 412)">log s0 best</text>
<rect x="267.92" y="390.00" width="20.25" height="0.00" fill="#1f8a70" rx="3" />
<text x="278.04" y="382.00" class="value" text-anchor="middle">5.7e+01</text>
<text x="278.04" y="412" class="label" text-anchor="end" transform="rotate(-35 278.04 412)">log s0 snap</text>
<rect x="302.83" y="389.85" width="20.25" height="0.15" fill="#2f6f8f" rx="3" />
<text x="312.96" y="381.85" class="value" text-anchor="middle">9.8e-01</text>
<text x="312.96" y="412" class="label" text-anchor="end" transform="rotate(-35 312.96 412)">log s1 best</text>
<rect x="337.75" y="390.00" width="20.25" height="0.00" fill="#d1495b" rx="3" />
<text x="347.87" y="382.00" class="value" text-anchor="middle">5.7e+01</text>
<text x="347.87" y="412" class="label" text-anchor="end" transform="rotate(-35 347.87 412)">log s1 snap</text>
<rect x="372.67" y="390.00" width="20.25" height="0.00" fill="#4f8a3a" rx="3" />
<text x="382.79" y="382.00" class="value" text-anchor="middle">6.6e+02</text>
<text x="382.79" y="412" class="label" text-anchor="end" transform="rotate(-35 382.79 412)">radioactive_decay s0 best</text>
<rect x="407.58" y="390.00" width="20.25" height="0.00" fill="#7a5195" rx="3" />
<text x="417.71" y="382.00" class="value" text-anchor="middle">inf</text>
<text x="417.71" y="412" class="label" text-anchor="end" transform="rotate(-35 417.71 412)">radioactive_decay s0 snap</text>
<rect x="442.50" y="390.00" width="20.25" height="0.00" fill="#a5673f" rx="3" />
<text x="452.62" y="382.00" class="value" text-anchor="middle">6.1e+02</text>
<text x="452.62" y="412" class="label" text-anchor="end" transform="rotate(-35 452.62 412)">radioactive_decay s1 best</text>
<rect x="477.42" y="390.00" width="20.25" height="0.00" fill="#1f8a70" rx="3" />
<text x="487.54" y="382.00" class="value" text-anchor="middle">inf</text>
<text x="487.54" y="412" class="label" text-anchor="end" transform="rotate(-35 487.54 412)">radioactive_decay s1 snap</text>
<rect x="512.33" y="76.00" width="20.25" height="314.00" fill="#2f6f8f" rx="3" />
<text x="522.46" y="68.00" class="value" text-anchor="middle">3.7e-33</text>
<text x="522.46" y="412" class="label" text-anchor="end" transform="rotate(-35 522.46 412)">beer_lambert s0 best</text>
<rect x="547.25" y="76.00" width="20.25" height="314.00" fill="#d1495b" rx="3" />
<text x="557.38" y="68.00" class="value" text-anchor="middle">4.5e-32</text>
<text x="557.38" y="412" class="label" text-anchor="end" transform="rotate(-35 557.38 412)">beer_lambert s0 snap</text>
<rect x="582.17" y="76.00" width="20.25" height="314.00" fill="#4f8a3a" rx="3" />
<text x="592.29" y="68.00" class="value" text-anchor="middle">3.7e-33</text>
<text x="592.29" y="412" class="label" text-anchor="end" transform="rotate(-35 592.29 412)">beer_lambert s0 best</text>
<rect x="617.08" y="76.00" width="20.25" height="314.00" fill="#7a5195" rx="3" />
<text x="627.21" y="68.00" class="value" text-anchor="middle">4.5e-32</text>
<text x="627.21" y="412" class="label" text-anchor="end" transform="rotate(-35 627.21 412)">beer_lambert s0 snap</text>
<rect x="652.00" y="390.00" width="20.25" height="0.00" fill="#a5673f" rx="3" />
<text x="662.12" y="382.00" class="value" text-anchor="middle">7.0e+00</text>
<text x="662.12" y="412" class="label" text-anchor="end" transform="rotate(-35 662.12 412)">beer_lambert s0 best</text>
<rect x="686.92" y="390.00" width="20.25" height="0.00" fill="#1f8a70" rx="3" />
<text x="697.04" y="382.00" class="value" text-anchor="middle">7.2e+00</text>
<text x="697.04" y="412" class="label" text-anchor="end" transform="rotate(-35 697.04 412)">beer_lambert s0 snap</text>
<rect x="721.83" y="76.00" width="20.25" height="314.00" fill="#2f6f8f" rx="3" />
<text x="731.96" y="68.00" class="value" text-anchor="middle">5.2e-33</text>
<text x="731.96" y="412" class="label" text-anchor="end" transform="rotate(-35 731.96 412)">beer_lambert s1 best</text>
<rect x="756.75" y="76.00" width="20.25" height="314.00" fill="#d1495b" rx="3" />
<text x="766.88" y="68.00" class="value" text-anchor="middle">4.5e-32</text>
<text x="766.88" y="412" class="label" text-anchor="end" transform="rotate(-35 766.88 412)">beer_lambert s1 snap</text>
<rect x="791.67" y="76.00" width="20.25" height="314.00" fill="#4f8a3a" rx="3" />
<text x="801.79" y="68.00" class="value" text-anchor="middle">5.2e-33</text>
<text x="801.79" y="412" class="label" text-anchor="end" transform="rotate(-35 801.79 412)">beer_lambert s1 best</text>
<rect x="826.58" y="76.00" width="20.25" height="314.00" fill="#7a5195" rx="3" />
<text x="836.71" y="68.00" class="value" text-anchor="middle">4.5e-32</text>
<text x="836.71" y="412" class="label" text-anchor="end" transform="rotate(-35 836.71 412)">beer_lambert s1 snap</text>
<rect x="861.50" y="377.07" width="20.25" height="12.93" fill="#a5673f" rx="3" />
<text x="871.62" y="369.07" class="value" text-anchor="middle">2.2e-01</text>
<text x="871.62" y="412" class="label" text-anchor="end" transform="rotate(-35 871.62 412)">beer_lambert s1 best</text>
<rect x="896.42" y="377.07" width="20.25" height="12.93" fill="#1f8a70" rx="3" />
<text x="906.54" y="369.07" class="value" text-anchor="middle">2.2e-01</text>
<text x="906.54" y="412" class="label" text-anchor="end" transform="rotate(-35 906.54 412)">beer_lambert s1 snap</text>
</svg>