<svg xmlns="http://www.w3.org/2000/svg" width="960" height="520" viewBox="0 0 960 520" role="img">
<style>
  .title { font: 700 24px sans-serif; fill: #1d252c; }
  .subtitle { font: 400 14px sans-serif; fill: #4b5563; }
  .axis { stroke: #28343d; stroke-width: 1.3; }
  .axis-label { font: 700 13px sans-serif; fill: #1d252c; }
  .grid { stroke: #d7dde3; stroke-width: 1; }
  .tick { font: 12px sans-serif; fill: #51606d; }
  .label { font: 12px sans-serif; fill: #1d252c; }
  .value { font: 700 11px sans-serif; fill: #1d252c; }
  .cell { font: 700 11px sans-serif; fill: #ffffff; }
</style>
<text x="92" y="42" class="title">Recovery Degradation with Depth</text>
<text x="92" y="65" class="subtitle">recovered / runs</text>
<line x1="92" y1="428" x2="916" y2="428" class="axis" />
<line x1="92" y1="84" x2="92" y2="428" class="axis" />
<line x1="87" y1="428.00" x2="916" y2="428.00" class="grid" />
<text x="80" y="432.00" class="tick" text-anchor="end">0</text>
<line x1="87" y1="342.00" x2="916" y2="342.00" class="grid" />
<text x="80" y="346.00" class="tick" text-anchor="end">0.25</text>
<line x1="87" y1="256.00" x2="916" y2="256.00" class="grid" />
<text x="80" y="260.00" class="tick" text-anchor="end">0.5</text>
<line x1="87" y1="170.00" x2="916" y2="170.00" class="grid" />
<text x="80" y="174.00" class="tick" text-anchor="end">0.75</text>
<line x1="87" y1="84.00" x2="916" y2="84.00" class="grid" />
<text x="80" y="88.00" class="tick" text-anchor="end">1</text>
<text x="480.00" y="496" class="axis-label" text-anchor="middle">EML depth</text>
<polyline points="92.00,84.00 298.00,84.00 504.00,428.00 710.00,428.00 916.00,428.00" fill="none" stroke="#146c94" stroke-width="3" />
<circle cx="92.00" cy="84.00" r="4" fill="#146c94" />
<circle cx="298.00" cy="84.00" r="4" fill="#146c94" />
<circle cx="504.00" cy="428.00" r="4" fill="#146c94" />
<circle cx="710.00" cy="428.00" r="4" fill="#146c94" />
<circle cx="916.00" cy="428.00" r="4" fill="#146c94" />
<rect x="770" y="81" width="14" height="14" fill="#146c94" rx="2" />
<text x="792" y="92" class="label">blind</text>
<polyline points="92.00,84.00 298.00,84.00 504.00,84.00 710.00,84.00 916.00,84.00" fill="none" stroke="#d1495b" stroke-width="3" />
<circle cx="92.00" cy="84.00" r="4" fill="#d1495b" />
<circle cx="298.00" cy="84.00" r="4" fill="#d1495b" />
<circle cx="504.00" cy="84.00" r="4" fill="#d1495b" />
<circle cx="710.00" cy="84.00" r="4" fill="#d1495b" />
<circle cx="916.00" cy="84.00" r="4" fill="#d1495b" />
<rect x="770" y="103" width="14" height="14" fill="#d1495b" rx="2" />
<text x="792" y="114" class="label">perturbed_tree</text>
</svg>