<svg xmlns="http://www.w3.org/2000/svg" width="960" height="520" viewBox="0 0 960 520" role="img">
<style>
  .title { font: 700 24px sans-serif; fill: #1d252c; }
  .subtitle { font: 400 14px sans-serif; fill: #4b5563; }
  .axis { stroke: #28343d; stroke-width: 1.3; }
  .axis-label { font: 700 13px sans-serif; fill: #1d252c; }
  .grid { stroke: #d7dde3; stroke-width: 1; }
  .tick { font: 12px sans-serif; fill: #51606d; }
  .label { font: 12px sans-serif; fill: #1d252c; }
  .value { font: 700 11px sans-serif; fill: #1d252c; }
  .cell { font: 700 11px sans-serif; fill: #ffffff; }
</style>
<text x="92" y="42" class="title">Unsupported and Failure Taxonomy</text>
<text x="92" y="65" class="subtitle">run count</text>
<line x1="92" y1="380" x2="926" y2="380" class="axis" />
<line x1="92" y1="84" x2="92" y2="380" class="axis" />
<line x1="87" y1="380.00" x2="926" y2="380.00" class="grid" />
<text x="80" y="384.00" class="tick" text-anchor="end">0</text>
<line x1="87" y1="306.00" x2="926" y2="306.00" class="grid" />
<text x="80" y="310.00" class="tick" text-anchor="end">0.25</text>
<line x1="87" y1="232.00" x2="926" y2="232.00" class="grid" />
<text x="80" y="236.00" class="tick" text-anchor="end">0.5</text>
<line x1="87" y1="158.00" x2="926" y2="158.00" class="grid" />
<text x="80" y="162.00" class="tick" text-anchor="end">0.75</text>
<line x1="87" y1="84.00" x2="926" y2="84.00" class="grid" />
<text x="80" y="88.00" class="tick" text-anchor="end">1</text>
<rect x="170.25" y="84.00" width="52.00" height="296.00" fill="#146c94" rx="3" />
<text x="196.25" y="76.00" class="value" text-anchor="middle">1</text>
<text x="196.25" y="402" class="label" text-anchor="end" transform="rotate(-36 196.25 402)">logistic snapped_but_failed</text>
<rect x="378.75" y="84.00" width="52.00" height="296.00" fill="#d1495b" rx="3" />
<text x="404.75" y="76.00" class="value" text-anchor="middle">1</text>
<text x="404.75" y="402" class="label" text-anchor="end" transform="rotate(-36 404.75 402)">logistic unsupported</text>
<rect x="587.25" y="84.00" width="52.00" height="296.00" fill="#2a9d8f" rx="3" />
<text x="613.25" y="76.00" class="value" text-anchor="middle">1</text>
<text x="613.25" y="402" class="label" text-anchor="end" transform="rotate(-36 613.25 402)">planck failed</text>
<rect x="795.75" y="84.00" width="52.00" height="296.00" fill="#e9c46a" rx="3" />
<text x="821.75" y="76.00" class="value" text-anchor="middle">1</text>
<text x="821.75" y="402" class="label" text-anchor="end" transform="rotate(-36 821.75 402)">planck unsupported</text>
</svg>