<svg xmlns="http://www.w3.org/2000/svg" width="960" height="520" viewBox="0 0 960 520" role="img">
<style>
  .title { font: 700 24px sans-serif; fill: #1d252c; }
  .subtitle { font: 400 14px sans-serif; fill: #4b5563; }
  .axis { stroke: #28343d; stroke-width: 1.3; }
  .grid { stroke: #d7dde3; stroke-width: 1; }
  .tick { font: 12px sans-serif; fill: #51606d; }
  .label { font: 12px sans-serif; fill: #1d252c; }
  .value { font: 700 11px sans-serif; fill: #1d252c; }
</style>
<text x="86" y="38" class="title">Training Loss Before and After Snap</text>
<text x="86" y="60" class="subtitle">-log10(loss), higher is lower loss</text>
<line x1="86" y1="390" x2="924" y2="390" class="axis" />
<line x1="86" y1="76" x2="86" y2="390" class="axis" />
<line x1="81" y1="390.00" x2="924" y2="390.00" class="grid" />
<text x="74" y="394.00" class="tick" text-anchor="end">0</text>
<line x1="81" y1="311.50" x2="924" y2="311.50" class="grid" />
<text x="74" y="315.50" class="tick" text-anchor="end">4</text>
<line x1="81" y1="233.00" x2="924" y2="233.00" class="grid" />
<text x="74" y="237.00" class="tick" text-anchor="end">8</text>
<line x1="81" y1="154.50" x2="924" y2="154.50" class="grid" />
<text x="74" y="158.50" class="tick" text-anchor="end">12</text>
<line x1="81" y1="76.00" x2="924" y2="76.00" class="grid" />
<text x="74" y="80.00" class="tick" text-anchor="end">16</text>
<rect x="89.52" y="76.00" width="12.00" height="314.00" fill="#2f6f8f" rx="3" />
<text x="95.52" y="68.00" class="value" text-anchor="middle">0.0e+00</text>
<text x="95.52" y="412" class="label" text-anchor="end" transform="rotate(-35 95.52 412)">exp s0 best</text>
<rect x="108.57" y="76.00" width="12.00" height="314.00" fill="#d1495b" rx="3" />
<text x="114.57" y="68.00" class="value" text-anchor="middle">0.0e+00</text>
<text x="114.57" y="412" class="label" text-anchor="end" transform="rotate(-35 114.57 412)">exp s0 snap</text>
<rect x="127.61" y="390.00" width="12.00" height="0.00" fill="#4f8a3a" rx="3" />
<text x="133.61" y="382.00" class="value" text-anchor="middle">1.0e+00</text>
<text x="133.61" y="412" class="label" text-anchor="end" transform="rotate(-35 133.61 412)">exp s0 best</text>
<rect x="146.66" y="390.00" width="12.00" height="0.00" fill="#7a5195" rx="3" />
<text x="152.66" y="382.00" class="value" text-anchor="middle">1.0e+00</text>
<text x="152.66" y="412" class="label" text-anchor="end" transform="rotate(-35 152.66 412)">exp s0 snap</text>
<rect x="165.70" y="390.00" width="12.00" height="0.00" fill="#a5673f" rx="3" />
<text x="171.70" y="382.00" class="value" text-anchor="middle">2.9e+00</text>
<text x="171.70" y="412" class="label" text-anchor="end" transform="rotate(-35 171.70 412)">exp s0 best</text>
<rect x="184.75" y="390.00" width="12.00" height="0.00" fill="#1f8a70" rx="3" />
<text x="190.75" y="382.00" class="value" text-anchor="middle">2.9e+00</text>
<text x="190.75" y="412" class="label" text-anchor="end" transform="rotate(-35 190.75 412)">exp s0 snap</text>
<rect x="203.80" y="381.57" width="12.00" height="8.43" fill="#2f6f8f" rx="3" />
<text x="209.80" y="373.57" class="value" text-anchor="middle">3.7e-01</text>
<text x="209.80" y="412" class="label" text-anchor="end" transform="rotate(-35 209.80 412)">exp s0 best</text>
<rect x="222.84" y="390.00" width="12.00" height="0.00" fill="#d1495b" rx="3" />
<text x="228.84" y="382.00" class="value" text-anchor="middle">1.2e+00</text>
<text x="228.84" y="412" class="label" text-anchor="end" transform="rotate(-35 228.84 412)">exp s0 snap</text>
<rect x="241.89" y="390.00" width="12.00" height="0.00" fill="#4f8a3a" rx="3" />
<text x="247.89" y="382.00" class="value" text-anchor="middle">3.7e+00</text>
<text x="247.89" y="412" class="label" text-anchor="end" transform="rotate(-35 247.89 412)">exp s0 best</text>
<rect x="260.93" y="390.00" width="12.00" height="0.00" fill="#7a5195" rx="3" />
<text x="266.93" y="382.00" class="value" text-anchor="middle">3.7e+00</text>
<text x="266.93" y="412" class="label" text-anchor="end" transform="rotate(-35 266.93 412)">exp s0 snap</text>
<rect x="279.98" y="383.06" width="12.00" height="6.94" fill="#a5673f" rx="3" />
<text x="285.98" y="375.06" class="value" text-anchor="middle">4.4e-01</text>
<text x="285.98" y="412" class="label" text-anchor="end" transform="rotate(-35 285.98 412)">exp s0 best</text>
<rect x="299.02" y="390.00" width="12.00" height="0.00" fill="#1f8a70" rx="3" />
<text x="305.02" y="382.00" class="value" text-anchor="middle">1.3e+00</text>
<text x="305.02" y="412" class="label" text-anchor="end" transform="rotate(-35 305.02 412)">exp s0 snap</text>
<rect x="318.07" y="390.00" width="12.00" height="0.00" fill="#2f6f8f" rx="3" />
<text x="324.07" y="382.00" class="value" text-anchor="middle">4.2e+00</text>
<text x="324.07" y="412" class="label" text-anchor="end" transform="rotate(-35 324.07 412)">exp s0 best</text>
<rect x="337.11" y="390.00" width="12.00" height="0.00" fill="#d1495b" rx="3" />
<text x="343.11" y="382.00" class="value" text-anchor="middle">4.2e+00</text>
<text x="343.11" y="412" class="label" text-anchor="end" transform="rotate(-35 343.11 412)">exp s0 snap</text>
<rect x="356.16" y="383.61" width="12.00" height="6.39" fill="#4f8a3a" rx="3" />
<text x="362.16" y="375.61" class="value" text-anchor="middle">4.7e-01</text>
<text x="362.16" y="412" class="label" text-anchor="end" transform="rotate(-35 362.16 412)">exp s0 best</text>
<rect x="375.20" y="390.00" width="12.00" height="0.00" fill="#7a5195" rx="3" />
<text x="381.20" y="382.00" class="value" text-anchor="middle">1.4e+00</text>
<text x="381.20" y="412" class="label" text-anchor="end" transform="rotate(-35 381.20 412)">exp s0 snap</text>
<rect x="394.25" y="390.00" width="12.00" height="0.00" fill="#a5673f" rx="3" />
<text x="400.25" y="382.00" class="value" text-anchor="middle">4.5e+00</text>
<text x="400.25" y="412" class="label" text-anchor="end" transform="rotate(-35 400.25 412)">exp s0 best</text>
<rect x="413.30" y="390.00" width="12.00" height="0.00" fill="#1f8a70" rx="3" />
<text x="419.30" y="382.00" class="value" text-anchor="middle">4.5e+00</text>
<text x="419.30" y="412" class="label" text-anchor="end" transform="rotate(-35 419.30 412)">exp s0 snap</text>
<rect x="432.34" y="390.00" width="12.00" height="0.00" fill="#2f6f8f" rx="3" />
<text x="438.34" y="382.00" class="value" text-anchor="middle">4.2e+00</text>
<text x="438.34" y="412" class="label" text-anchor="end" transform="rotate(-35 438.34 412)">exp s0 best</text>
<rect x="451.39" y="390.00" width="12.00" height="0.00" fill="#d1495b" rx="3" />
<text x="457.39" y="382.00" class="value" text-anchor="middle">4.2e+00</text>
<text x="457.39" y="412" class="label" text-anchor="end" transform="rotate(-35 457.39 412)">exp s0 snap</text>
<rect x="470.43" y="390.00" width="12.00" height="0.00" fill="#4f8a3a" rx="3" />
<text x="476.43" y="382.00" class="value" text-anchor="middle">2.9e+00</text>
<text x="476.43" y="412" class="label" text-anchor="end" transform="rotate(-35 476.43 412)">exp s0 best</text>
<rect x="489.48" y="390.00" width="12.00" height="0.00" fill="#7a5195" rx="3" />
<text x="495.48" y="382.00" class="value" text-anchor="middle">2.9e+00</text>
<text x="495.48" y="412" class="label" text-anchor="end" transform="rotate(-35 495.48 412)">exp s0 snap</text>
<rect x="508.52" y="76.00" width="12.00" height="314.00" fill="#a5673f" rx="3" />
<text x="514.52" y="68.00" class="value" text-anchor="middle">1.4e-32</text>
<text x="514.52" y="412" class="label" text-anchor="end" transform="rotate(-35 514.52 412)">log s0 best</text>
<rect x="527.57" y="76.00" width="12.00" height="314.00" fill="#1f8a70" rx="3" />
<text x="533.57" y="68.00" class="value" text-anchor="middle">1.4e-32</text>
<text x="533.57" y="412" class="label" text-anchor="end" transform="rotate(-35 533.57 412)">log s0 snap</text>
<rect x="546.61" y="375.57" width="12.00" height="14.43" fill="#2f6f8f" rx="3" />
<text x="552.61" y="367.57" class="value" text-anchor="middle">1.8e-01</text>
<text x="552.61" y="412" class="label" text-anchor="end" transform="rotate(-35 552.61 412)">log s0 best</text>
<rect x="565.66" y="375.57" width="12.00" height="14.43" fill="#d1495b" rx="3" />
<text x="571.66" y="367.57" class="value" text-anchor="middle">1.8e-01</text>
<text x="571.66" y="412" class="label" text-anchor="end" transform="rotate(-35 571.66 412)">log s0 snap</text>
<rect x="584.70" y="390.00" width="12.00" height="0.00" fill="#4f8a3a" rx="3" />
<text x="590.70" y="382.00" class="value" text-anchor="middle">1.1e+00</text>
<text x="590.70" y="412" class="label" text-anchor="end" transform="rotate(-35 590.70 412)">log s0 best</text>
<rect x="603.75" y="390.00" width="12.00" height="0.00" fill="#7a5195" rx="3" />
<text x="609.75" y="382.00" class="value" text-anchor="middle">1.1e+00</text>
<text x="609.75" y="412" class="label" text-anchor="end" transform="rotate(-35 609.75 412)">log s0 snap</text>
<rect x="622.80" y="390.00" width="12.00" height="0.00" fill="#a5673f" rx="3" />
<text x="628.80" y="382.00" class="value" text-anchor="middle">1.4e+00</text>
<text x="628.80" y="412" class="label" text-anchor="end" transform="rotate(-35 628.80 412)">log s0 best</text>
<rect x="641.84" y="390.00" width="12.00" height="0.00" fill="#1f8a70" rx="3" />
<text x="647.84" y="382.00" class="value" text-anchor="middle">1.5e+00</text>
<text x="647.84" y="412" class="label" text-anchor="end" transform="rotate(-35 647.84 412)">log s0 snap</text>
<rect x="660.89" y="374.50" width="12.00" height="15.50" fill="#2f6f8f" rx="3" />
<text x="666.89" y="366.50" class="value" text-anchor="middle">1.6e-01</text>
<text x="666.89" y="412" class="label" text-anchor="end" transform="rotate(-35 666.89 412)">log s0 best</text>
<rect x="679.93" y="384.46" width="12.00" height="5.54" fill="#d1495b" rx="3" />
<text x="685.93" y="376.46" class="value" text-anchor="middle">5.2e-01</text>
<text x="685.93" y="412" class="label" text-anchor="end" transform="rotate(-35 685.93 412)">log s0 snap</text>
<rect x="698.98" y="390.00" width="12.00" height="0.00" fill="#4f8a3a" rx="3" />
<text x="704.98" y="382.00" class="value" text-anchor="middle">1.6e+00</text>
<text x="704.98" y="412" class="label" text-anchor="end" transform="rotate(-35 704.98 412)">log s0 best</text>
<rect x="718.02" y="390.00" width="12.00" height="0.00" fill="#7a5195" rx="3" />
<text x="724.02" y="382.00" class="value" text-anchor="middle">1.6e+00</text>
<text x="724.02" y="412" class="label" text-anchor="end" transform="rotate(-35 724.02 412)">log s0 snap</text>
<rect x="737.07" y="370.28" width="12.00" height="19.72" fill="#a5673f" rx="3" />
<text x="743.07" y="362.28" class="value" text-anchor="middle">9.9e-02</text>
<text x="743.07" y="412" class="label" text-anchor="end" transform="rotate(-35 743.07 412)">log s0 best</text>
<rect x="756.11" y="383.85" width="12.00" height="6.15" fill="#1f8a70" rx="3" />
<text x="762.11" y="375.85" class="value" text-anchor="middle">4.9e-01</text>
<text x="762.11" y="412" class="label" text-anchor="end" transform="rotate(-35 762.11 412)">log s0 snap</text>
<rect x="775.16" y="387.78" width="12.00" height="2.22" fill="#2f6f8f" rx="3" />
<text x="781.16" y="379.78" class="value" text-anchor="middle">7.7e-01</text>
<text x="781.16" y="412" class="label" text-anchor="end" transform="rotate(-35 781.16 412)">log s0 best</text>
<rect x="794.20" y="389.44" width="12.00" height="0.56" fill="#d1495b" rx="3" />
<text x="800.20" y="381.44" class="value" text-anchor="middle">9.4e-01</text>
<text x="800.20" y="412" class="label" text-anchor="end" transform="rotate(-35 800.20 412)">log s0 snap</text>
<rect x="813.25" y="373.76" width="12.00" height="16.24" fill="#4f8a3a" rx="3" />
<text x="819.25" y="365.76" class="value" text-anchor="middle">1.5e-01</text>
<text x="819.25" y="412" class="label" text-anchor="end" transform="rotate(-35 819.25 412)">log s0 best</text>
<rect x="832.30" y="384.30" width="12.00" height="5.70" fill="#7a5195" rx="3" />
<text x="838.30" y="376.30" class="value" text-anchor="middle">5.1e-01</text>
<text x="838.30" y="412" class="label" text-anchor="end" transform="rotate(-35 838.30 412)">log s0 snap</text>
<rect x="851.34" y="375.30" width="12.00" height="14.70" fill="#a5673f" rx="3" />
<text x="857.34" y="367.30" class="value" text-anchor="middle">1.8e-01</text>
<text x="857.34" y="412" class="label" text-anchor="end" transform="rotate(-35 857.34 412)">log s0 best</text>
<rect x="870.39" y="383.85" width="12.00" height="6.15" fill="#1f8a70" rx="3" />
<text x="876.39" y="375.85" class="value" text-anchor="middle">4.9e-01</text>
<text x="876.39" y="412" class="label" text-anchor="end" transform="rotate(-35 876.39 412)">log s0 snap</text>
<rect x="889.43" y="377.14" width="12.00" height="12.86" fill="#2f6f8f" rx="3" />
<text x="895.43" y="369.14" class="value" text-anchor="middle">2.2e-01</text>
<text x="895.43" y="412" class="label" text-anchor="end" transform="rotate(-35 895.43 412)">log s0 best</text>
<rect x="908.48" y="390.00" width="12.00" height="0.00" fill="#d1495b" rx="3" />
<text x="914.48" y="382.00" class="value" text-anchor="middle">1.0e+00</text>
<text x="914.48" y="412" class="label" text-anchor="end" transform="rotate(-35 914.48 412)">log s0 snap</text>
</svg>