<svg xmlns="http://www.w3.org/2000/svg" width="960" height="520" viewBox="0 0 960 520" role="img">
<style>
  .title { font: 700 24px sans-serif; fill: #1d252c; }
  .subtitle { font: 400 14px sans-serif; fill: #4b5563; }
  .axis { stroke: #28343d; stroke-width: 1.3; }
  .grid { stroke: #d7dde3; stroke-width: 1; }
  .tick { font: 12px sans-serif; fill: #51606d; }
  .label { font: 12px sans-serif; fill: #1d252c; }
  .value { font: 700 11px sans-serif; fill: #1d252c; }
</style>
<text x="86" y="38" class="title">Training Loss Before and After Snap</text>
<text x="86" y="60" class="subtitle">-log10(loss), higher is lower loss</text>
<line x1="86" y1="390" x2="924" y2="390" class="axis" />
<line x1="86" y1="76" x2="86" y2="390" class="axis" />
<line x1="81" y1="390.00" x2="924" y2="390.00" class="grid" />
<text x="74" y="394.00" class="tick" text-anchor="end">0</text>
<line x1="81" y1="311.50" x2="924" y2="311.50" class="grid" />
<text x="74" y="315.50" class="tick" text-anchor="end">4</text>
<line x1="81" y1="233.00" x2="924" y2="233.00" class="grid" />
<text x="74" y="237.00" class="tick" text-anchor="end">8</text>
<line x1="81" y1="154.50" x2="924" y2="154.50" class="grid" />
<text x="74" y="158.50" class="tick" text-anchor="end">12</text>
<line x1="81" y1="76.00" x2="924" y2="76.00" class="grid" />
<text x="74" y="80.00" class="tick" text-anchor="end">16</text>
<rect x="92.77" y="76.00" width="18.69" height="314.00" fill="#2f6f8f" rx="3" />
<text x="102.12" y="68.00" class="value" text-anchor="middle">0.0e+00</text>
<text x="102.12" y="412" class="label" text-anchor="end" transform="rotate(-35 102.12 412)">exp s0 best</text>
<rect x="125.00" y="76.00" width="18.69" height="314.00" fill="#d1495b" rx="3" />
<text x="134.35" y="68.00" class="value" text-anchor="middle">0.0e+00</text>
<text x="134.35" y="412" class="label" text-anchor="end" transform="rotate(-35 134.35 412)">exp s0 snap</text>
<rect x="157.23" y="76.00" width="18.69" height="314.00" fill="#4f8a3a" rx="3" />
<text x="166.58" y="68.00" class="value" text-anchor="middle">0.0e+00</text>
<text x="166.58" y="412" class="label" text-anchor="end" transform="rotate(-35 166.58 412)">exp s1 best</text>
<rect x="189.46" y="76.00" width="18.69" height="314.00" fill="#7a5195" rx="3" />
<text x="198.81" y="68.00" class="value" text-anchor="middle">0.0e+00</text>
<text x="198.81" y="412" class="label" text-anchor="end" transform="rotate(-35 198.81 412)">exp s1 snap</text>
<rect x="221.69" y="76.00" width="18.69" height="314.00" fill="#a5673f" rx="3" />
<text x="231.04" y="68.00" class="value" text-anchor="middle">1.6e-32</text>
<text x="231.04" y="412" class="label" text-anchor="end" transform="rotate(-35 231.04 412)">log s0 best</text>
<rect x="253.92" y="76.00" width="18.69" height="314.00" fill="#1f8a70" rx="3" />
<text x="263.27" y="68.00" class="value" text-anchor="middle">1.6e-32</text>
<text x="263.27" y="412" class="label" text-anchor="end" transform="rotate(-35 263.27 412)">log s0 snap</text>
<rect x="286.15" y="76.00" width="18.69" height="314.00" fill="#2f6f8f" rx="3" />
<text x="295.50" y="68.00" class="value" text-anchor="middle">1.1e-32</text>
<text x="295.50" y="412" class="label" text-anchor="end" transform="rotate(-35 295.50 412)">log s1 best</text>
<rect x="318.38" y="76.00" width="18.69" height="314.00" fill="#d1495b" rx="3" />
<text x="327.73" y="68.00" class="value" text-anchor="middle">1.1e-32</text>
<text x="327.73" y="412" class="label" text-anchor="end" transform="rotate(-35 327.73 412)">log s1 snap</text>
<rect x="350.61" y="390.00" width="18.69" height="0.00" fill="#4f8a3a" rx="3" />
<text x="359.96" y="382.00" class="value" text-anchor="middle">3.6e+00</text>
<text x="359.96" y="412" class="label" text-anchor="end" transform="rotate(-35 359.96 412)">radioactive_decay s0 best</text>
<rect x="382.85" y="390.00" width="18.69" height="0.00" fill="#7a5195" rx="3" />
<text x="392.19" y="382.00" class="value" text-anchor="middle">3.6e+00</text>
<text x="392.19" y="412" class="label" text-anchor="end" transform="rotate(-35 392.19 412)">radioactive_decay s0 snap</text>
<rect x="415.08" y="390.00" width="18.69" height="0.00" fill="#a5673f" rx="3" />
<text x="424.42" y="382.00" class="value" text-anchor="middle">3.0e+00</text>
<text x="424.42" y="412" class="label" text-anchor="end" transform="rotate(-35 424.42 412)">radioactive_decay s1 best</text>
<rect x="447.31" y="390.00" width="18.69" height="0.00" fill="#1f8a70" rx="3" />
<text x="456.65" y="382.00" class="value" text-anchor="middle">3.0e+00</text>
<text x="456.65" y="412" class="label" text-anchor="end" transform="rotate(-35 456.65 412)">radioactive_decay s1 snap</text>
<rect x="479.54" y="76.00" width="18.69" height="314.00" fill="#2f6f8f" rx="3" />
<text x="488.88" y="68.00" class="value" text-anchor="middle">3.7e-33</text>
<text x="488.88" y="412" class="label" text-anchor="end" transform="rotate(-35 488.88 412)">beer_lambert s0 best</text>
<rect x="511.77" y="76.00" width="18.69" height="314.00" fill="#d1495b" rx="3" />
<text x="521.12" y="68.00" class="value" text-anchor="middle">4.5e-32</text>
<text x="521.12" y="412" class="label" text-anchor="end" transform="rotate(-35 521.12 412)">beer_lambert s0 snap</text>
<rect x="544.00" y="76.00" width="18.69" height="314.00" fill="#4f8a3a" rx="3" />
<text x="553.35" y="68.00" class="value" text-anchor="middle">3.7e-33</text>
<text x="553.35" y="412" class="label" text-anchor="end" transform="rotate(-35 553.35 412)">beer_lambert s0 best</text>
<rect x="576.23" y="76.00" width="18.69" height="314.00" fill="#7a5195" rx="3" />
<text x="585.58" y="68.00" class="value" text-anchor="middle">4.5e-32</text>
<text x="585.58" y="412" class="label" text-anchor="end" transform="rotate(-35 585.58 412)">beer_lambert s0 snap</text>
<rect x="608.46" y="390.00" width="18.69" height="0.00" fill="#a5673f" rx="3" />
<text x="617.81" y="382.00" class="value" text-anchor="middle">7.0e+00</text>
<text x="617.81" y="412" class="label" text-anchor="end" transform="rotate(-35 617.81 412)">beer_lambert s0 best</text>
<rect x="640.69" y="390.00" width="18.69" height="0.00" fill="#1f8a70" rx="3" />
<text x="650.04" y="382.00" class="value" text-anchor="middle">7.2e+00</text>
<text x="650.04" y="412" class="label" text-anchor="end" transform="rotate(-35 650.04 412)">beer_lambert s0 snap</text>
<rect x="672.92" y="76.00" width="18.69" height="314.00" fill="#2f6f8f" rx="3" />
<text x="682.27" y="68.00" class="value" text-anchor="middle">5.2e-33</text>
<text x="682.27" y="412" class="label" text-anchor="end" transform="rotate(-35 682.27 412)">beer_lambert s1 best</text>
<rect x="705.15" y="76.00" width="18.69" height="314.00" fill="#d1495b" rx="3" />
<text x="714.50" y="68.00" class="value" text-anchor="middle">4.5e-32</text>
<text x="714.50" y="412" class="label" text-anchor="end" transform="rotate(-35 714.50 412)">beer_lambert s1 snap</text>
<rect x="737.38" y="76.00" width="18.69" height="314.00" fill="#4f8a3a" rx="3" />
<text x="746.73" y="68.00" class="value" text-anchor="middle">5.2e-33</text>
<text x="746.73" y="412" class="label" text-anchor="end" transform="rotate(-35 746.73 412)">beer_lambert s1 best</text>
<rect x="769.61" y="76.00" width="18.69" height="314.00" fill="#7a5195" rx="3" />
<text x="778.96" y="68.00" class="value" text-anchor="middle">4.5e-32</text>
<text x="778.96" y="412" class="label" text-anchor="end" transform="rotate(-35 778.96 412)">beer_lambert s1 snap</text>
<rect x="801.85" y="377.07" width="18.69" height="12.93" fill="#a5673f" rx="3" />
<text x="811.19" y="369.07" class="value" text-anchor="middle">2.2e-01</text>
<text x="811.19" y="412" class="label" text-anchor="end" transform="rotate(-35 811.19 412)">beer_lambert s1 best</text>
<rect x="834.08" y="377.07" width="18.69" height="12.93" fill="#1f8a70" rx="3" />
<text x="843.42" y="369.07" class="value" text-anchor="middle">2.2e-01</text>
<text x="843.42" y="412" class="label" text-anchor="end" transform="rotate(-35 843.42 412)">beer_lambert s1 snap</text>
<rect x="866.31" y="76.00" width="18.69" height="314.00" fill="#2f6f8f" rx="3" />
<text x="875.65" y="68.00" class="value" text-anchor="middle">1.2e-30</text>
<text x="875.65" y="412" class="label" text-anchor="end" transform="rotate(-35 875.65 412)">shockley s0 best</text>
<rect x="898.54" y="76.00" width="18.69" height="314.00" fill="#d1495b" rx="3" />
<text x="907.88" y="68.00" class="value" text-anchor="middle">1.2e-30</text>
<text x="907.88" y="412" class="label" text-anchor="end" transform="rotate(-35 907.88 412)">shockley s0 snap</text>
</svg>