<svg xmlns="http://www.w3.org/2000/svg" width="960" height="520" viewBox="0 0 960 520" role="img">
<style>
  .title { font: 700 24px sans-serif; fill: #1d252c; }
  .subtitle { font: 400 14px sans-serif; fill: #4b5563; }
  .axis { stroke: #28343d; stroke-width: 1.3; }
  .grid { stroke: #d7dde3; stroke-width: 1; }
  .tick { font: 12px sans-serif; fill: #51606d; }
  .label { font: 12px sans-serif; fill: #1d252c; }
  .value { font: 700 11px sans-serif; fill: #1d252c; }
</style>
<text x="86" y="38" class="title">Training Loss Before and After Snap</text>
<text x="86" y="60" class="subtitle">-log10(loss), higher is lower loss</text>
<line x1="86" y1="390" x2="924" y2="390" class="axis" />
<line x1="86" y1="76" x2="86" y2="390" class="axis" />
<line x1="81" y1="390.00" x2="924" y2="390.00" class="grid" />
<text x="74" y="394.00" class="tick" text-anchor="end">0</text>
<line x1="81" y1="311.50" x2="924" y2="311.50" class="grid" />
<text x="74" y="315.50" class="tick" text-anchor="end">4</text>
<line x1="81" y1="233.00" x2="924" y2="233.00" class="grid" />
<text x="74" y="237.00" class="tick" text-anchor="end">8</text>
<line x1="81" y1="154.50" x2="924" y2="154.50" class="grid" />
<text x="74" y="158.50" class="tick" text-anchor="end">12</text>
<line x1="81" y1="76.00" x2="924" y2="76.00" class="grid" />
<text x="74" y="80.00" class="tick" text-anchor="end">16</text>
<rect x="90.40" y="220.19" width="12.15" height="169.81" fill="#2f6f8f" rx="3" />
<text x="96.48" y="212.19" class="value" text-anchor="middle">2.2e-09</text>
<text x="96.48" y="412" class="label" text-anchor="end" transform="rotate(-35 96.48 412)">depth_curve_depth2 s0 best</text>
<rect x="111.35" y="76.00" width="12.15" height="314.00" fill="#d1495b" rx="3" />
<text x="117.43" y="68.00" class="value" text-anchor="middle">0.0e+00</text>
<text x="117.43" y="412" class="label" text-anchor="end" transform="rotate(-35 117.43 412)">depth_curve_depth2 s0 snap</text>
<rect x="132.30" y="276.66" width="12.15" height="113.34" fill="#4f8a3a" rx="3" />
<text x="138.38" y="268.66" class="value" text-anchor="middle">1.7e-06</text>
<text x="138.38" y="412" class="label" text-anchor="end" transform="rotate(-35 138.38 412)">depth_curve_depth2 s1 best</text>
<rect x="153.25" y="76.00" width="12.15" height="314.00" fill="#7a5195" rx="3" />
<text x="159.32" y="68.00" class="value" text-anchor="middle">0.0e+00</text>
<text x="159.32" y="412" class="label" text-anchor="end" transform="rotate(-35 159.32 412)">depth_curve_depth2 s1 snap</text>
<rect x="174.20" y="76.00" width="12.15" height="314.00" fill="#a5673f" rx="3" />
<text x="180.28" y="68.00" class="value" text-anchor="middle">0.0e+00</text>
<text x="180.28" y="412" class="label" text-anchor="end" transform="rotate(-35 180.28 412)">depth_curve_depth3 s0 best</text>
<rect x="195.15" y="76.00" width="12.15" height="314.00" fill="#1f8a70" rx="3" />
<text x="201.22" y="68.00" class="value" text-anchor="middle">0.0e+00</text>
<text x="201.22" y="412" class="label" text-anchor="end" transform="rotate(-35 201.22 412)">depth_curve_depth3 s0 snap</text>
<rect x="216.10" y="76.00" width="12.15" height="314.00" fill="#2f6f8f" rx="3" />
<text x="222.17" y="68.00" class="value" text-anchor="middle">0.0e+00</text>
<text x="222.17" y="412" class="label" text-anchor="end" transform="rotate(-35 222.17 412)">depth_curve_depth3 s1 best</text>
<rect x="237.05" y="76.00" width="12.15" height="314.00" fill="#d1495b" rx="3" />
<text x="243.12" y="68.00" class="value" text-anchor="middle">0.0e+00</text>
<text x="243.12" y="412" class="label" text-anchor="end" transform="rotate(-35 243.12 412)">depth_curve_depth3 s1 snap</text>
<rect x="258.00" y="380.00" width="12.15" height="10.00" fill="#4f8a3a" rx="3" />
<text x="264.07" y="372.00" class="value" text-anchor="middle">3.1e-01</text>
<text x="264.07" y="412" class="label" text-anchor="end" transform="rotate(-35 264.07 412)">depth_curve_depth4 s0 best</text>
<rect x="278.95" y="390.00" width="12.15" height="0.00" fill="#7a5195" rx="3" />
<text x="285.02" y="382.00" class="value" text-anchor="middle">1.1e+00</text>
<text x="285.02" y="412" class="label" text-anchor="end" transform="rotate(-35 285.02 412)">depth_curve_depth4 s0 snap</text>
<rect x="299.90" y="374.08" width="12.15" height="15.92" fill="#a5673f" rx="3" />
<text x="305.97" y="366.08" class="value" text-anchor="middle">1.5e-01</text>
<text x="305.97" y="412" class="label" text-anchor="end" transform="rotate(-35 305.97 412)">depth_curve_depth4 s1 best</text>
<rect x="320.85" y="374.08" width="12.15" height="15.92" fill="#1f8a70" rx="3" />
<text x="326.92" y="366.08" class="value" text-anchor="middle">1.5e-01</text>
<text x="326.92" y="412" class="label" text-anchor="end" transform="rotate(-35 326.92 412)">depth_curve_depth4 s1 snap</text>
<rect x="341.80" y="390.00" width="12.15" height="0.00" fill="#2f6f8f" rx="3" />
<text x="347.87" y="382.00" class="value" text-anchor="middle">2.0e+00</text>
<text x="347.87" y="412" class="label" text-anchor="end" transform="rotate(-35 347.87 412)">depth_curve_depth5 s0 best</text>
<rect x="362.75" y="390.00" width="12.15" height="0.00" fill="#d1495b" rx="3" />
<text x="368.82" y="382.00" class="value" text-anchor="middle">2.0e+00</text>
<text x="368.82" y="412" class="label" text-anchor="end" transform="rotate(-35 368.82 412)">depth_curve_depth5 s0 snap</text>
<rect x="383.70" y="390.00" width="12.15" height="0.00" fill="#4f8a3a" rx="3" />
<text x="389.77" y="382.00" class="value" text-anchor="middle">2.0e+00</text>
<text x="389.77" y="412" class="label" text-anchor="end" transform="rotate(-35 389.77 412)">depth_curve_depth5 s1 best</text>
<rect x="404.65" y="390.00" width="12.15" height="0.00" fill="#7a5195" rx="3" />
<text x="410.72" y="382.00" class="value" text-anchor="middle">2.0e+00</text>
<text x="410.72" y="412" class="label" text-anchor="end" transform="rotate(-35 410.72 412)">depth_curve_depth5 s1 snap</text>
<rect x="425.60" y="380.13" width="12.15" height="9.87" fill="#a5673f" rx="3" />
<text x="431.67" y="372.13" class="value" text-anchor="middle">3.1e-01</text>
<text x="431.67" y="412" class="label" text-anchor="end" transform="rotate(-35 431.67 412)">depth_curve_depth6 s0 best</text>
<rect x="446.55" y="380.78" width="12.15" height="9.22" fill="#1f8a70" rx="3" />
<text x="452.62" y="372.78" class="value" text-anchor="middle">3.4e-01</text>
<text x="452.62" y="412" class="label" text-anchor="end" transform="rotate(-35 452.62 412)">depth_curve_depth6 s0 snap</text>
<rect x="467.50" y="378.52" width="12.15" height="11.48" fill="#2f6f8f" rx="3" />
<text x="473.57" y="370.52" class="value" text-anchor="middle">2.6e-01</text>
<text x="473.57" y="412" class="label" text-anchor="end" transform="rotate(-35 473.57 412)">depth_curve_depth6 s1 best</text>
<rect x="488.45" y="380.77" width="12.15" height="9.23" fill="#d1495b" rx="3" />
<text x="494.52" y="372.77" class="value" text-anchor="middle">3.4e-01</text>
<text x="494.52" y="412" class="label" text-anchor="end" transform="rotate(-35 494.52 412)">depth_curve_depth6 s1 snap</text>
<rect x="509.40" y="76.00" width="12.15" height="314.00" fill="#4f8a3a" rx="3" />
<text x="515.48" y="68.00" class="value" text-anchor="middle">0.0e+00</text>
<text x="515.48" y="412" class="label" text-anchor="end" transform="rotate(-35 515.48 412)">depth_curve_depth2 s0 best</text>
<rect x="530.35" y="76.00" width="12.15" height="314.00" fill="#7a5195" rx="3" />
<text x="536.43" y="68.00" class="value" text-anchor="middle">0.0e+00</text>
<text x="536.43" y="412" class="label" text-anchor="end" transform="rotate(-35 536.43 412)">depth_curve_depth2 s0 snap</text>
<rect x="551.30" y="76.00" width="12.15" height="314.00" fill="#a5673f" rx="3" />
<text x="557.38" y="68.00" class="value" text-anchor="middle">0.0e+00</text>
<text x="557.38" y="412" class="label" text-anchor="end" transform="rotate(-35 557.38 412)">depth_curve_depth2 s1 best</text>
<rect x="572.25" y="76.00" width="12.15" height="314.00" fill="#1f8a70" rx="3" />
<text x="578.32" y="68.00" class="value" text-anchor="middle">0.0e+00</text>
<text x="578.32" y="412" class="label" text-anchor="end" transform="rotate(-35 578.32 412)">depth_curve_depth2 s1 snap</text>
<rect x="593.20" y="76.00" width="12.15" height="314.00" fill="#2f6f8f" rx="3" />
<text x="599.27" y="68.00" class="value" text-anchor="middle">0.0e+00</text>
<text x="599.27" y="412" class="label" text-anchor="end" transform="rotate(-35 599.27 412)">depth_curve_depth3 s0 best</text>
<rect x="614.15" y="76.00" width="12.15" height="314.00" fill="#d1495b" rx="3" />
<text x="620.23" y="68.00" class="value" text-anchor="middle">0.0e+00</text>
<text x="620.23" y="412" class="label" text-anchor="end" transform="rotate(-35 620.23 412)">depth_curve_depth3 s0 snap</text>
<rect x="635.10" y="76.00" width="12.15" height="314.00" fill="#4f8a3a" rx="3" />
<text x="641.17" y="68.00" class="value" text-anchor="middle">0.0e+00</text>
<text x="641.17" y="412" class="label" text-anchor="end" transform="rotate(-35 641.17 412)">depth_curve_depth3 s1 best</text>
<rect x="656.05" y="76.00" width="12.15" height="314.00" fill="#7a5195" rx="3" />
<text x="662.12" y="68.00" class="value" text-anchor="middle">0.0e+00</text>
<text x="662.12" y="412" class="label" text-anchor="end" transform="rotate(-35 662.12 412)">depth_curve_depth3 s1 snap</text>
<rect x="677.00" y="76.00" width="12.15" height="314.00" fill="#a5673f" rx="3" />
<text x="683.08" y="68.00" class="value" text-anchor="middle">0.0e+00</text>
<text x="683.08" y="412" class="label" text-anchor="end" transform="rotate(-35 683.08 412)">depth_curve_depth4 s0 best</text>
<rect x="697.95" y="76.00" width="12.15" height="314.00" fill="#1f8a70" rx="3" />
<text x="704.02" y="68.00" class="value" text-anchor="middle">0.0e+00</text>
<text x="704.02" y="412" class="label" text-anchor="end" transform="rotate(-35 704.02 412)">depth_curve_depth4 s0 snap</text>
<rect x="718.90" y="76.00" width="12.15" height="314.00" fill="#2f6f8f" rx="3" />
<text x="724.98" y="68.00" class="value" text-anchor="middle">0.0e+00</text>
<text x="724.98" y="412" class="label" text-anchor="end" transform="rotate(-35 724.98 412)">depth_curve_depth4 s1 best</text>
<rect x="739.85" y="76.00" width="12.15" height="314.00" fill="#d1495b" rx="3" />
<text x="745.92" y="68.00" class="value" text-anchor="middle">0.0e+00</text>
<text x="745.92" y="412" class="label" text-anchor="end" transform="rotate(-35 745.92 412)">depth_curve_depth4 s1 snap</text>
<rect x="760.80" y="76.00" width="12.15" height="314.00" fill="#4f8a3a" rx="3" />
<text x="766.88" y="68.00" class="value" text-anchor="middle">0.0e+00</text>
<text x="766.88" y="412" class="label" text-anchor="end" transform="rotate(-35 766.88 412)">depth_curve_depth5 s0 best</text>
<rect x="781.75" y="76.00" width="12.15" height="314.00" fill="#7a5195" rx="3" />
<text x="787.83" y="68.00" class="value" text-anchor="middle">0.0e+00</text>
<text x="787.83" y="412" class="label" text-anchor="end" transform="rotate(-35 787.83 412)">depth_curve_depth5 s0 snap</text>
<rect x="802.70" y="76.00" width="12.15" height="314.00" fill="#a5673f" rx="3" />
<text x="808.77" y="68.00" class="value" text-anchor="middle">0.0e+00</text>
<text x="808.77" y="412" class="label" text-anchor="end" transform="rotate(-35 808.77 412)">depth_curve_depth5 s1 best</text>
<rect x="823.65" y="76.00" width="12.15" height="314.00" fill="#1f8a70" rx="3" />
<text x="829.73" y="68.00" class="value" text-anchor="middle">0.0e+00</text>
<text x="829.73" y="412" class="label" text-anchor="end" transform="rotate(-35 829.73 412)">depth_curve_depth5 s1 snap</text>
<rect x="844.60" y="76.00" width="12.15" height="314.00" fill="#2f6f8f" rx="3" />
<text x="850.67" y="68.00" class="value" text-anchor="middle">0.0e+00</text>
<text x="850.67" y="412" class="label" text-anchor="end" transform="rotate(-35 850.67 412)">depth_curve_depth6 s0 best</text>
<rect x="865.55" y="76.00" width="12.15" height="314.00" fill="#d1495b" rx="3" />
<text x="871.62" y="68.00" class="value" text-anchor="middle">0.0e+00</text>
<text x="871.62" y="412" class="label" text-anchor="end" transform="rotate(-35 871.62 412)">depth_curve_depth6 s0 snap</text>
<rect x="886.50" y="76.00" width="12.15" height="314.00" fill="#4f8a3a" rx="3" />
<text x="892.58" y="68.00" class="value" text-anchor="middle">0.0e+00</text>
<text x="892.58" y="412" class="label" text-anchor="end" transform="rotate(-35 892.58 412)">depth_curve_depth6 s1 best</text>
<rect x="907.45" y="76.00" width="12.15" height="314.00" fill="#7a5195" rx="3" />
<text x="913.52" y="68.00" class="value" text-anchor="middle">0.0e+00</text>
<text x="913.52" y="412" class="label" text-anchor="end" transform="rotate(-35 913.52 412)">depth_curve_depth6 s1 snap</text>
</svg>