<svg xmlns="http://www.w3.org/2000/svg" width="960" height="520" viewBox="0 0 960 520" role="img">
<style>
  .title { font: 700 24px sans-serif; fill: #1d252c; }
  .subtitle { font: 400 14px sans-serif; fill: #4b5563; }
  .axis { stroke: #28343d; stroke-width: 1.3; }
  .grid { stroke: #d7dde3; stroke-width: 1; }
  .tick { font: 12px sans-serif; fill: #51606d; }
  .label { font: 12px sans-serif; fill: #1d252c; }
  .value { font: 700 11px sans-serif; fill: #1d252c; }
</style>
<text x="86" y="38" class="title">Runtime by Depth and Warm Budget</text>
<text x="86" y="60" class="subtitle">mean elapsed seconds</text>
<line x1="86" y1="390" x2="924" y2="390" class="axis" />
<line x1="86" y1="76" x2="86" y2="390" class="axis" />
<line x1="81" y1="390.00" x2="924" y2="390.00" class="grid" />
<text x="74" y="394.00" class="tick" text-anchor="end">0</text>
<line x1="81" y1="311.50" x2="924" y2="311.50" class="grid" />
<text x="74" y="315.50" class="tick" text-anchor="end">2.1</text>
<line x1="81" y1="233.00" x2="924" y2="233.00" class="grid" />
<text x="74" y="237.00" class="tick" text-anchor="end">4.3</text>
<line x1="81" y1="154.50" x2="924" y2="154.50" class="grid" />
<text x="74" y="158.50" class="tick" text-anchor="end">6.4</text>
<line x1="81" y1="76.00" x2="924" y2="76.00" class="grid" />
<text x="74" y="80.00" class="tick" text-anchor="end">8.6</text>
<rect x="103.60" y="353.77" width="48.60" height="36.23" fill="#2f6f8f" rx="3" />
<text x="127.90" y="345.77" class="value" text-anchor="middle">0.99s</text>
<text x="127.90" y="412" class="label" text-anchor="end" transform="rotate(-35 127.90 412)">d2 / ws20</text>
<rect x="187.40" y="344.06" width="48.60" height="45.94" fill="#d1495b" rx="3" />
<text x="211.70" y="336.06" class="value" text-anchor="middle">1.25s</text>
<text x="211.70" y="412" class="label" text-anchor="end" transform="rotate(-35 211.70 412)">d2 / ws8</text>
<rect x="271.20" y="353.34" width="48.60" height="36.66" fill="#4f8a3a" rx="3" />
<text x="295.50" y="345.34" class="value" text-anchor="middle">1.00s</text>
<text x="295.50" y="412" class="label" text-anchor="end" transform="rotate(-35 295.50 412)">d3 / ws20</text>
<rect x="355.00" y="320.99" width="48.60" height="69.01" fill="#7a5195" rx="3" />
<text x="379.30" y="312.99" class="value" text-anchor="middle">1.88s</text>
<text x="379.30" y="412" class="label" text-anchor="end" transform="rotate(-35 379.30 412)">d3 / ws8</text>
<rect x="438.80" y="347.41" width="48.60" height="42.59" fill="#a5673f" rx="3" />
<text x="463.10" y="339.41" class="value" text-anchor="middle">1.16s</text>
<text x="463.10" y="412" class="label" text-anchor="end" transform="rotate(-35 463.10 412)">d4 / ws30</text>
<rect x="522.60" y="290.23" width="48.60" height="99.77" fill="#1f8a70" rx="3" />
<text x="546.90" y="282.23" class="value" text-anchor="middle">2.72s</text>
<text x="546.90" y="412" class="label" text-anchor="end" transform="rotate(-35 546.90 412)">d4 / ws8</text>
<rect x="606.40" y="344.75" width="48.60" height="45.25" fill="#2f6f8f" rx="3" />
<text x="630.70" y="336.75" class="value" text-anchor="middle">1.24s</text>
<text x="630.70" y="412" class="label" text-anchor="end" transform="rotate(-35 630.70 412)">d5 / ws30</text>
<rect x="690.20" y="218.77" width="48.60" height="171.23" fill="#d1495b" rx="3" />
<text x="714.50" y="210.77" class="value" text-anchor="middle">4.67s</text>
<text x="714.50" y="412" class="label" text-anchor="end" transform="rotate(-35 714.50 412)">d5 / ws8</text>
<rect x="774.00" y="332.93" width="48.60" height="57.07" fill="#4f8a3a" rx="3" />
<text x="798.30" y="324.93" class="value" text-anchor="middle">1.56s</text>
<text x="798.30" y="412" class="label" text-anchor="end" transform="rotate(-35 798.30 412)">d6 / ws30</text>
<rect x="857.80" y="76.00" width="48.60" height="314.00" fill="#7a5195" rx="3" />
<text x="882.10" y="68.00" class="value" text-anchor="middle">8.57s</text>
<text x="882.10" y="412" class="label" text-anchor="end" transform="rotate(-35 882.10 412)">d6 / ws8</text>
</svg>