<svg xmlns="http://www.w3.org/2000/svg" width="960" height="520" viewBox="0 0 960 520" role="img">
<style>
  .title { font: 700 24px sans-serif; fill: #1d252c; }
  .subtitle { font: 400 14px sans-serif; fill: #4b5563; }
  .axis { stroke: #28343d; stroke-width: 1.3; }
  .grid { stroke: #d7dde3; stroke-width: 1; }
  .tick { font: 12px sans-serif; fill: #51606d; }
  .label { font: 12px sans-serif; fill: #1d252c; }
  .value { font: 700 11px sans-serif; fill: #1d252c; }
</style>
<text x="86" y="38" class="title">Verifier Recovery Rate by Formula</text>
<text x="86" y="60" class="subtitle">recovered / total</text>
<line x1="86" y1="390" x2="924" y2="390" class="axis" />
<line x1="86" y1="76" x2="86" y2="390" class="axis" />
<line x1="81" y1="390.00" x2="924" y2="390.00" class="grid" />
<text x="74" y="394.00" class="tick" text-anchor="end">0</text>
<line x1="81" y1="311.50" x2="924" y2="311.50" class="grid" />
<text x="74" y="315.50" class="tick" text-anchor="end">0.25</text>
<line x1="81" y1="233.00" x2="924" y2="233.00" class="grid" />
<text x="74" y="237.00" class="tick" text-anchor="end">0.5</text>
<line x1="81" y1="154.50" x2="924" y2="154.50" class="grid" />
<text x="74" y="158.50" class="tick" text-anchor="end">0.75</text>
<line x1="81" y1="76.00" x2="924" y2="76.00" class="grid" />
<text x="74" y="80.00" class="tick" text-anchor="end">1</text>
<rect x="105.55" y="138.80" width="54.00" height="251.20" fill="#2f6f8f" rx="3" />
<text x="132.56" y="130.80" class="value" text-anchor="middle">80%</text>
<text x="132.56" y="412" class="label" text-anchor="end" transform="rotate(-35 132.56 412)">beer_lambert</text>
<rect x="198.66" y="390.00" width="54.00" height="0.00" fill="#d1495b" rx="3" />
<text x="225.67" y="382.00" class="value" text-anchor="middle">0%</text>
<text x="225.67" y="412" class="label" text-anchor="end" transform="rotate(-35 225.67 412)">damped_oscillator</text>
<rect x="291.78" y="76.00" width="54.00" height="314.00" fill="#4f8a3a" rx="3" />
<text x="318.78" y="68.00" class="value" text-anchor="middle">100%</text>
<text x="318.78" y="412" class="label" text-anchor="end" transform="rotate(-35 318.78 412)">exp</text>
<rect x="384.89" y="76.00" width="54.00" height="314.00" fill="#7a5195" rx="3" />
<text x="411.89" y="68.00" class="value" text-anchor="middle">100%</text>
<text x="411.89" y="412" class="label" text-anchor="end" transform="rotate(-35 411.89 412)">log</text>
<rect x="478.00" y="390.00" width="54.00" height="0.00" fill="#a5673f" rx="3" />
<text x="505.00" y="382.00" class="value" text-anchor="middle">0%</text>
<text x="505.00" y="412" class="label" text-anchor="end" transform="rotate(-35 505.00 412)">logistic</text>
<rect x="571.11" y="390.00" width="54.00" height="0.00" fill="#1f8a70" rx="3" />
<text x="598.11" y="382.00" class="value" text-anchor="middle">0%</text>
<text x="598.11" y="412" class="label" text-anchor="end" transform="rotate(-35 598.11 412)">michaelis_menten</text>
<rect x="664.22" y="390.00" width="54.00" height="0.00" fill="#2f6f8f" rx="3" />
<text x="691.22" y="382.00" class="value" text-anchor="middle">0%</text>
<text x="691.22" y="412" class="label" text-anchor="end" transform="rotate(-35 691.22 412)">planck</text>
<rect x="757.33" y="390.00" width="54.00" height="0.00" fill="#d1495b" rx="3" />
<text x="784.33" y="382.00" class="value" text-anchor="middle">0%</text>
<text x="784.33" y="412" class="label" text-anchor="end" transform="rotate(-35 784.33 412)">radioactive_decay</text>
<rect x="850.44" y="76.00" width="54.00" height="314.00" fill="#4f8a3a" rx="3" />
<text x="877.44" y="68.00" class="value" text-anchor="middle">100%</text>
<text x="877.44" y="412" class="label" text-anchor="end" transform="rotate(-35 877.44 412)">shockley</text>
</svg>