<svg xmlns="http://www.w3.org/2000/svg" width="960" height="520" viewBox="0 0 960 520" role="img">
<style>
  .title { font: 700 24px sans-serif; fill: #1d252c; }
  .subtitle { font: 400 14px sans-serif; fill: #4b5563; }
  .axis { stroke: #28343d; stroke-width: 1.3; }
  .axis-label { font: 700 13px sans-serif; fill: #1d252c; }
  .grid { stroke: #d7dde3; stroke-width: 1; }
  .tick { font: 12px sans-serif; fill: #51606d; }
  .label { font: 12px sans-serif; fill: #1d252c; }
  .value { font: 700 11px sans-serif; fill: #1d252c; }
  .cell { font: 700 11px sans-serif; fill: #ffffff; }
</style>
<text x="92" y="42" class="title">Reusable Motif Compile-Depth Reduction</text>
<text x="92" y="65" class="subtitle">baseline depth minus motif depth</text>
<line x1="92" y1="380" x2="926" y2="380" class="axis" />
<line x1="92" y1="84" x2="92" y2="380" class="axis" />
<line x1="87" y1="380.00" x2="926" y2="380.00" class="grid" />
<text x="80" y="384.00" class="tick" text-anchor="end">0</text>
<line x1="87" y1="306.00" x2="926" y2="306.00" class="grid" />
<text x="80" y="310.00" class="tick" text-anchor="end">3</text>
<line x1="87" y1="232.00" x2="926" y2="232.00" class="grid" />
<text x="80" y="236.00" class="tick" text-anchor="end">6</text>
<line x1="87" y1="158.00" x2="926" y2="158.00" class="grid" />
<text x="80" y="162.00" class="tick" text-anchor="end">9</text>
<line x1="87" y1="84.00" x2="926" y2="84.00" class="grid" />
<text x="80" y="88.00" class="tick" text-anchor="end">12</text>
<rect x="135.50" y="182.67" width="52.00" height="197.33" fill="#146c94" rx="3" />
<text x="161.50" y="174.67" class="value" text-anchor="middle">21-&gt;13</text>
<text x="161.50" y="402" class="label" text-anchor="end" transform="rotate(-36 161.50 402)">Shockley</text>
<rect x="274.50" y="281.33" width="52.00" height="98.67" fill="#d1495b" rx="3" />
<text x="300.50" y="273.33" class="value" text-anchor="middle">11-&gt;7</text>
<text x="300.50" y="402" class="label" text-anchor="end" transform="rotate(-36 300.50 402)">Arrhenius</text>
<rect x="413.50" y="232.00" width="52.00" height="148.00" fill="#2a9d8f" rx="3" />
<text x="439.50" y="224.00" class="value" text-anchor="middle">18-&gt;12</text>
<text x="439.50" y="402" class="label" text-anchor="end" transform="rotate(-36 439.50 402)">Michaelis-Menten</text>
<rect x="552.50" y="133.33" width="52.00" height="246.67" fill="#e9c46a" rx="3" />
<text x="578.50" y="125.33" class="value" text-anchor="middle">24-&gt;14</text>
<text x="578.50" y="402" class="label" text-anchor="end" transform="rotate(-36 578.50 402)">Planck diagnostic</text>
<rect x="691.50" y="84.00" width="52.00" height="296.00" fill="#4d908e" rx="3" />
<text x="717.50" y="76.00" class="value" text-anchor="middle">27-&gt;15</text>
<text x="717.50" y="402" class="label" text-anchor="end" transform="rotate(-36 717.50 402)">Logistic diagnostic</text>
<rect x="830.50" y="281.33" width="52.00" height="98.67" fill="#8f5d5d" rx="3" />
<text x="856.50" y="273.33" class="value" text-anchor="middle">18-&gt;14</text>
<text x="856.50" y="402" class="label" text-anchor="end" transform="rotate(-36 856.50 402)">Historical Michaelis diagnostic</text>
</svg>