<svg xmlns="http://www.w3.org/2000/svg" width="960" height="520" viewBox="0 0 960 520" role="img">
<style>
  .title { font: 700 24px sans-serif; fill: #1d252c; }
  .subtitle { font: 400 14px sans-serif; fill: #4b5563; }
  .axis { stroke: #28343d; stroke-width: 1.3; }
  .axis-label { font: 700 13px sans-serif; fill: #1d252c; }
  .grid { stroke: #d7dde3; stroke-width: 1; }
  .tick { font: 12px sans-serif; fill: #51606d; }
  .label { font: 12px sans-serif; fill: #1d252c; }
  .value { font: 700 11px sans-serif; fill: #1d252c; }
  .cell { font: 700 11px sans-serif; fill: #ffffff; }
</style>
<text x="92" y="42" class="title">Verifier Recovery by Evidence Regime</text>
<text x="92" y="65" class="subtitle">verified recovered / runs</text>
<line x1="92" y1="380" x2="926" y2="380" class="axis" />
<line x1="92" y1="84" x2="92" y2="380" class="axis" />
<line x1="87" y1="380.00" x2="926" y2="380.00" class="grid" />
<text x="80" y="384.00" class="tick" text-anchor="end">0</text>
<line x1="87" y1="306.00" x2="926" y2="306.00" class="grid" />
<text x="80" y="310.00" class="tick" text-anchor="end">0.25</text>
<line x1="87" y1="232.00" x2="926" y2="232.00" class="grid" />
<text x="80" y="236.00" class="tick" text-anchor="end">0.5</text>
<line x1="87" y1="158.00" x2="926" y2="158.00" class="grid" />
<text x="80" y="162.00" class="tick" text-anchor="end">0.75</text>
<line x1="87" y1="84.00" x2="926" y2="84.00" class="grid" />
<text x="80" y="88.00" class="tick" text-anchor="end">1</text>
<rect x="149.40" y="84.00" width="52.00" height="296.00" fill="#146c94" rx="3" />
<text x="175.40" y="76.00" class="value" text-anchor="middle">4/4</text>
<text x="175.40" y="402" class="label" text-anchor="end" transform="rotate(-36 175.40 402)">paper blind</text>
<rect x="316.20" y="84.00" width="52.00" height="296.00" fill="#d1495b" rx="3" />
<text x="342.20" y="76.00" class="value" text-anchor="middle">1/1</text>
<text x="342.20" y="402" class="label" text-anchor="end" transform="rotate(-36 342.20 402)">paper perturbed_tree</text>
<rect x="483.00" y="84.00" width="52.00" height="296.00" fill="#2a9d8f" rx="3" />
<text x="509.00" y="76.00" class="value" text-anchor="middle">3/3</text>
<text x="509.00" y="402" class="label" text-anchor="end" transform="rotate(-36 509.00 402)">paper warm_start</text>
<rect x="649.80" y="380.00" width="52.00" height="0.00" fill="#e9c46a" rx="3" />
<text x="675.80" y="372.00" class="value" text-anchor="middle">0/2</text>
<text x="675.80" y="402" class="label" text-anchor="end" transform="rotate(-36 675.80 402)">logistic-planck blind</text>
<rect x="816.60" y="380.00" width="52.00" height="0.00" fill="#4d908e" rx="3" />
<text x="842.60" y="372.00" class="value" text-anchor="middle">0/2</text>
<text x="842.60" y="402" class="label" text-anchor="end" transform="rotate(-36 842.60 402)">logistic-planck compile</text>
</svg>