<svg xmlns="http://www.w3.org/2000/svg" width="1080" height="390" viewBox="0 0 1080 390" role="img">
<style>
  .title { font: 700 24px sans-serif; fill: #1d252c; }
  .subtitle { font: 400 14px sans-serif; fill: #4b5563; }
  .axis { stroke: #28343d; stroke-width: 1.3; }
  .axis-label { font: 700 13px sans-serif; fill: #1d252c; }
  .grid { stroke: #d7dde3; stroke-width: 1; }
  .tick { font: 12px sans-serif; fill: #51606d; }
  .label { font: 12px sans-serif; fill: #1d252c; }
  .value { font: 700 11px sans-serif; fill: #1d252c; }
  .cell { font: 700 11px sans-serif; fill: #ffffff; }
</style>
<text x="44" y="42" class="title">Scientific-Law Support Matrix</text>
<text x="44" y="66" class="subtitle">Rows are generated from the v1.11 scientific-law source table.</text>
<text x="430" y="92" class="axis-label">Compile</text>
<text x="610" y="92" class="axis-label">Warm</text>
<text x="790" y="92" class="axis-label">Verify</text>
<text x="950" y="92" class="axis-label">Depth</text>
<text x="44" y="140" class="label">Beer-Lambert</text>
<rect x="430" y="118" width="138" height="28" fill="#2a9d8f" rx="4" />
<text x="499" y="136" class="cell" text-anchor="middle">supported</text>
<rect x="610" y="118" width="138" height="28" fill="#2a9d8f" rx="4" />
<text x="679" y="136" class="cell" text-anchor="middle">same_ast_return</text>
<rect x="790" y="118" width="138" height="28" fill="#2a9d8f" rx="4" />
<text x="859" y="136" class="cell" text-anchor="middle">recovered</text>
<text x="950" y="140" class="value">9</text>
<text x="44" y="182" class="label">Shockley</text>
<rect x="430" y="160" width="138" height="28" fill="#2a9d8f" rx="4" />
<text x="499" y="178" class="cell" text-anchor="middle">supported</text>
<rect x="610" y="160" width="138" height="28" fill="#2a9d8f" rx="4" />
<text x="679" y="178" class="cell" text-anchor="middle">same_ast_return</text>
<rect x="790" y="160" width="138" height="28" fill="#2a9d8f" rx="4" />
<text x="859" y="178" class="cell" text-anchor="middle">recovered</text>
<text x="950" y="182" class="value">13</text>
<text x="44" y="224" class="label">Arrhenius</text>
<rect x="430" y="202" width="138" height="28" fill="#2a9d8f" rx="4" />
<text x="499" y="220" class="cell" text-anchor="middle">supported</text>
<rect x="610" y="202" width="138" height="28" fill="#2a9d8f" rx="4" />
<text x="679" y="220" class="cell" text-anchor="middle">same_ast_return</text>
<rect x="790" y="202" width="138" height="28" fill="#2a9d8f" rx="4" />
<text x="859" y="220" class="cell" text-anchor="middle">recovered</text>
<text x="950" y="224" class="value">7</text>
<text x="44" y="266" class="label">Michaelis-Menten</text>
<rect x="430" y="244" width="138" height="28" fill="#2a9d8f" rx="4" />
<text x="499" y="262" class="cell" text-anchor="middle">supported</text>
<rect x="610" y="244" width="138" height="28" fill="#2a9d8f" rx="4" />
<text x="679" y="262" class="cell" text-anchor="middle">same_ast_return</text>
<rect x="790" y="244" width="138" height="28" fill="#2a9d8f" rx="4" />
<text x="859" y="262" class="cell" text-anchor="middle">recovered</text>
<text x="950" y="266" class="value">12</text>
<text x="44" y="308" class="label">Planck diagnostic</text>
<rect x="430" y="286" width="138" height="28" fill="#d1495b" rx="4" />
<text x="499" y="304" class="cell" text-anchor="middle">unsupported</text>
<rect x="610" y="286" width="138" height="28" fill="#e9c46a" rx="4" />
<text x="679" y="304" class="cell" text-anchor="middle">not_applicable</text>
<rect x="790" y="286" width="138" height="28" fill="#d1495b" rx="4" />
<text x="859" y="304" class="cell" text-anchor="middle">unsupported</text>
<text x="950" y="308" class="value">14</text>
<text x="44" y="350" class="label">Logistic diagnostic</text>
<rect x="430" y="328" width="138" height="28" fill="#d1495b" rx="4" />
<text x="499" y="346" class="cell" text-anchor="middle">unsupported</text>
<rect x="610" y="328" width="138" height="28" fill="#e9c46a" rx="4" />
<text x="679" y="346" class="cell" text-anchor="middle">not_applicable</text>
<rect x="790" y="328" width="138" height="28" fill="#d1495b" rx="4" />
<text x="859" y="346" class="cell" text-anchor="middle">unsupported</text>
<text x="950" y="350" class="value">15</text>
<text x="44" y="392" class="label">Historical Michaelis diagnostic</text>
<rect x="430" y="370" width="138" height="28" fill="#d1495b" rx="4" />
<text x="499" y="388" class="cell" text-anchor="middle">unsupported</text>
<rect x="610" y="370" width="138" height="28" fill="#d1495b" rx="4" />
<text x="679" y="388" class="cell" text-anchor="middle">unsupported</text>
<rect x="790" y="370" width="138" height="28" fill="#d1495b" rx="4" />
<text x="859" y="388" class="cell" text-anchor="middle">unsupported</text>
<text x="950" y="392" class="value">14</text>
</svg>