<svg xmlns="http://www.w3.org/2000/svg" width="1120" height="1000" viewBox="0 0 1120 1000" role="img" aria-labelledby="title desc">
  <title id="title">Current target, data, and EML status curves</title>
  <desc id="desc">Twelve target panels with function names, formulas, EML worked or failed status labels, axis names, light target lines, training dots, validation triangles, and verified EML curves where recovered.</desc>
  <style>
    text { font-family: "Times New Roman", Times, serif; fill: #000000; }
    .legend { font-size: 14px; }
    .formula-name { font-size: 12px; font-weight: 700; }
    .formula-expr { font-size: 10.5px; }
    .status-worked { font-size: 10.5px; fill: #008000; }
    .status-failed { font-size: 10.5px; fill: #cc0000; }
    .axis-label { font-size: 11px; font-style: italic; }
    .axis { stroke: #000000; stroke-width: 1; }
    .grid { stroke: #e5e5e5; stroke-width: 0.55; }
    .target-line { fill: none; stroke: #d9d9d9; stroke-width: 1; stroke-linejoin: miter; stroke-linecap: butt; }
    .eml-line { fill: none; stroke: #008000; stroke-width: 2.1; stroke-dasharray: 7 4; stroke-linejoin: miter; stroke-linecap: butt; }
    .train { fill: #0057b8; stroke: #000000; stroke-width: 0.45; }
    .validation { fill: #cc0000; stroke: #000000; stroke-width: 0.45; }
  </style>
  <rect width="1120" height="1000" fill="#ffffff"/>
  <line x1="54" y1="40" x2="98" y2="40" class="target-line"/>
  <text x="108" y="45" class="legend">target</text>
  <line x1="184" y1="40" x2="228" y2="40" class="eml-line"/>
  <text x="238" y="45" class="legend">verified EML</text>
  <circle cx="386" cy="40" r="4" class="train"/>
  <text x="398" y="45" class="legend">training data</text>
  <polygon points="542,34 536,46 548,46" class="validation"/>
  <text x="558" y="45" class="legend">validation data</text>
  <text x="48.0" y="98.0" class="formula-name">exp</text>
  <text x="48.0" y="114.0" class="formula-expr">exp(x)</text>
  <text x="48.0" y="130.0" class="status-worked">EML: worked</text>
  <line x1="78.0" y1="146.0" x2="363.0" y2="146.0" class="grid"/>
  <line x1="78.0" y1="212.0" x2="363.0" y2="212.0" class="grid"/>
  <line x1="78.0" y1="278.0" x2="363.0" y2="278.0" class="axis"/>
  <line x1="78.0" y1="146.0" x2="78.0" y2="278.0" class="axis"/>
  <text x="355.0" y="295.0" class="axis-label">x</text>
  <text x="60.0" y="154.0" class="axis-label">y</text>
  <polyline points="78.0,268.9 80.9,268.5 83.8,268.2 86.6,267.8 89.5,267.4 92.4,267.0 95.3,266.6 98.2,266.2 101.0,265.8 103.9,265.3 106.8,264.9 109.7,264.5 112.5,264.0 115.4,263.5 118.3,263.1 121.2,262.6 124.1,262.1 126.9,261.6 129.8,261.1 132.7,260.6 135.6,260.0 138.5,259.5 141.3,258.9 144.2,258.4 147.1,257.8 150.0,257.2 152.8,256.6 155.7,256.0 158.6,255.3 161.5,254.7 164.4,254.1 167.2,253.4 170.1,252.7 173.0,252.0 175.9,251.3 178.8,250.6 181.6,249.8 184.5,249.1 187.4,248.3 190.3,247.5 193.2,246.7 196.0,245.9 198.9,245.1 201.8,244.3 204.7,243.4 207.5,242.5 210.4,241.6 213.3,240.7 216.2,239.7 219.1,238.8 221.9,237.8 224.8,236.8 227.7,235.8 230.6,234.7 233.5,233.7 236.3,232.6 239.2,231.5 242.1,230.4 245.0,229.2 247.8,228.0 250.7,226.9 253.6,225.6 256.5,224.4 259.4,223.1 262.2,221.8 265.1,220.5 268.0,219.1 270.9,217.8 273.8,216.4 276.6,214.9 279.5,213.5 282.4,212.0 285.3,210.4 288.2,208.9 291.0,207.3 293.9,205.7 296.8,204.0 299.7,202.3 302.5,200.6 305.4,198.8 308.3,197.1 311.2,195.2 314.1,193.4 316.9,191.5 319.8,189.5 322.7,187.5 325.6,185.5 328.5,183.4 331.3,181.3 334.2,179.2 337.1,177.0 340.0,174.7 342.8,172.5 345.7,170.1 348.6,167.7 351.5,165.3 354.4,162.8 357.2,160.3 360.1,157.7 363.0,155.1" class="target-line"/>
  <circle cx="78.1" cy="268.9" r="3.2" class="train"/>
  <circle cx="114.5" cy="263.7" r="3.2" class="train"/>
  <circle cx="160.0" cy="255.0" r="3.2" class="train"/>
  <circle cx="197.4" cy="245.5" r="3.2" class="train"/>
  <circle cx="243.7" cy="229.7" r="3.2" class="train"/>
  <circle cx="279.9" cy="213.3" r="3.2" class="train"/>
  <circle cx="325.7" cy="185.4" r="3.2" class="train"/>
  <circle cx="362.9" cy="155.2" r="3.2" class="train"/>
  <polygon points="106.4,259.5 100.9,270.5 111.9,270.5" class="validation"/>
  <polygon points="137.0,254.3 131.5,265.3 142.5,265.3" class="validation"/>
  <polygon points="167.0,247.9 161.5,258.9 172.5,258.9" class="validation"/>
  <polygon points="198.1,239.8 192.6,250.8 203.6,250.8" class="validation"/>
  <polygon points="244.0,224.1 238.5,235.1 249.5,235.1" class="validation"/>
  <polygon points="274.1,210.7 268.6,221.7 279.6,221.7" class="validation"/>
  <polygon points="304.0,194.2 298.5,205.2 309.5,205.2" class="validation"/>
  <polygon points="335.4,172.8 329.9,183.8 340.9,183.8" class="validation"/>
  <polyline points="78.0,268.9 80.9,268.5 83.8,268.2 86.6,267.8 89.5,267.4 92.4,267.0 95.3,266.6 98.2,266.2 101.0,265.8 103.9,265.3 106.8,264.9 109.7,264.5 112.5,264.0 115.4,263.5 118.3,263.1 121.2,262.6 124.1,262.1 126.9,261.6 129.8,261.1 132.7,260.6 135.6,260.0 138.5,259.5 141.3,258.9 144.2,258.4 147.1,257.8 150.0,257.2 152.8,256.6 155.7,256.0 158.6,255.3 161.5,254.7 164.4,254.1 167.2,253.4 170.1,252.7 173.0,252.0 175.9,251.3 178.8,250.6 181.6,249.8 184.5,249.1 187.4,248.3 190.3,247.5 193.2,246.7 196.0,245.9 198.9,245.1 201.8,244.3 204.7,243.4 207.5,242.5 210.4,241.6 213.3,240.7 216.2,239.7 219.1,238.8 221.9,237.8 224.8,236.8 227.7,235.8 230.6,234.7 233.5,233.7 236.3,232.6 239.2,231.5 242.1,230.4 245.0,229.2 247.8,228.0 250.7,226.9 253.6,225.6 256.5,224.4 259.4,223.1 262.2,221.8 265.1,220.5 268.0,219.1 270.9,217.8 273.8,216.4 276.6,214.9 279.5,213.5 282.4,212.0 285.3,210.4 288.2,208.9 291.0,207.3 293.9,205.7 296.8,204.0 299.7,202.3 302.5,200.6 305.4,198.8 308.3,197.1 311.2,195.2 314.1,193.4 316.9,191.5 319.8,189.5 322.7,187.5 325.6,185.5 328.5,183.4 331.3,181.3 334.2,179.2 337.1,177.0 340.0,174.7 342.8,172.5 345.7,170.1 348.6,167.7 351.5,165.3 354.4,162.8 357.2,160.3 360.1,157.7 363.0,155.1" class="eml-line"/>
  <text x="400.0" y="98.0" class="formula-name">log</text>
  <text x="400.0" y="114.0" class="formula-expr">log(x)</text>
  <text x="400.0" y="130.0" class="status-failed">EML: failed (constant policy; depth exceeded)</text>
  <line x1="430.0" y1="146.0" x2="715.0" y2="146.0" class="grid"/>
  <line x1="430.0" y1="212.0" x2="715.0" y2="212.0" class="grid"/>
  <line x1="430.0" y1="278.0" x2="715.0" y2="278.0" class="axis"/>
  <line x1="430.0" y1="146.0" x2="430.0" y2="278.0" class="axis"/>
  <text x="707.0" y="295.0" class="axis-label">x</text>
  <text x="412.0" y="154.0" class="axis-label">y</text>
  <polyline points="430.0,268.9 432.9,264.1 435.8,259.7 438.6,255.7 441.5,252.1 444.4,248.7 447.3,245.5 450.2,242.5 453.0,239.8 455.9,237.2 458.8,234.7 461.7,232.3 464.5,230.1 467.4,228.0 470.3,225.9 473.2,224.0 476.1,222.1 478.9,220.3 481.8,218.6 484.7,216.9 487.6,215.3 490.5,213.8 493.3,212.3 496.2,210.8 499.1,209.4 502.0,208.0 504.8,206.7 507.7,205.4 510.6,204.2 513.5,202.9 516.4,201.7 519.2,200.6 522.1,199.5 525.0,198.4 527.9,197.3 530.8,196.2 533.6,195.2 536.5,194.2 539.4,193.2 542.3,192.2 545.2,191.3 548.0,190.4 550.9,189.5 553.8,188.6 556.7,187.7 559.5,186.8 562.4,186.0 565.3,185.2 568.2,184.4 571.1,183.6 573.9,182.8 576.8,182.0 579.7,181.3 582.6,180.5 585.5,179.8 588.3,179.1 591.2,178.4 594.1,177.7 597.0,177.0 599.8,176.3 602.7,175.6 605.6,175.0 608.5,174.3 611.4,173.7 614.2,173.0 617.1,172.4 620.0,171.8 622.9,171.2 625.8,170.6 628.6,170.0 631.5,169.4 634.4,168.8 637.3,168.3 640.2,167.7 643.0,167.2 645.9,166.6 648.8,166.1 651.7,165.5 654.5,165.0 657.4,164.5 660.3,164.0 663.2,163.5 666.1,162.9 668.9,162.4 671.8,162.0 674.7,161.5 677.6,161.0 680.5,160.5 683.3,160.0 686.2,159.6 689.1,159.1 692.0,158.6 694.8,158.2 697.7,157.7 700.6,157.3 703.5,156.8 706.4,156.4 709.2,156.0 712.1,155.5 715.0,155.1" class="target-line"/>
  <circle cx="430.1" cy="268.8" r="3.2" class="train"/>
  <circle cx="466.5" cy="228.7" r="3.2" class="train"/>
  <circle cx="512.0" cy="203.6" r="3.2" class="train"/>
  <circle cx="549.4" cy="189.9" r="3.2" class="train"/>
  <circle cx="595.7" cy="177.3" r="3.2" class="train"/>
  <circle cx="631.9" cy="169.3" r="3.2" class="train"/>
  <circle cx="677.7" cy="161.0" r="3.2" class="train"/>
  <circle cx="714.9" cy="155.1" r="3.2" class="train"/>
  <polygon points="440.3,248.1 434.8,259.1 445.8,259.1" class="validation"/>
  <polygon points="473.6,218.2 468.1,229.2 479.1,229.2" class="validation"/>
  <polygon points="506.4,200.5 500.9,211.5 511.9,211.5" class="validation"/>
  <polygon points="540.2,187.4 534.7,198.4 545.7,198.4" class="validation"/>
  <polygon points="590.4,173.1 584.9,184.1 595.9,184.1" class="validation"/>
  <polygon points="623.2,165.6 617.7,176.6 628.7,176.6" class="validation"/>
  <polygon points="655.8,159.3 650.3,170.3 661.3,170.3" class="validation"/>
  <polygon points="690.1,153.4 684.6,164.4 695.6,164.4" class="validation"/>
  <text x="752.0" y="98.0" class="formula-name">radioactive_decay</text>
  <text x="752.0" y="114.0" class="formula-expr">exp(-0.4 t)</text>
  <text x="752.0" y="130.0" class="status-worked">EML: worked</text>
  <line x1="782.0" y1="146.0" x2="1067.0" y2="146.0" class="grid"/>
  <line x1="782.0" y1="212.0" x2="1067.0" y2="212.0" class="grid"/>
  <line x1="782.0" y1="278.0" x2="1067.0" y2="278.0" class="axis"/>
  <line x1="782.0" y1="146.0" x2="782.0" y2="278.0" class="axis"/>
  <text x="1059.0" y="295.0" class="axis-label">t</text>
  <text x="764.0" y="154.0" class="axis-label">y</text>
  <polyline points="782.0,155.1 784.9,157.7 787.8,160.3 790.6,162.8 793.5,165.3 796.4,167.7 799.3,170.1 802.2,172.5 805.0,174.7 807.9,177.0 810.8,179.2 813.7,181.3 816.5,183.4 819.4,185.5 822.3,187.5 825.2,189.5 828.1,191.5 830.9,193.4 833.8,195.2 836.7,197.1 839.6,198.8 842.5,200.6 845.3,202.3 848.2,204.0 851.1,205.7 854.0,207.3 856.8,208.9 859.7,210.4 862.6,212.0 865.5,213.5 868.4,214.9 871.2,216.4 874.1,217.8 877.0,219.1 879.9,220.5 882.8,221.8 885.6,223.1 888.5,224.4 891.4,225.6 894.3,226.9 897.2,228.0 900.0,229.2 902.9,230.4 905.8,231.5 908.7,232.6 911.5,233.7 914.4,234.7 917.3,235.8 920.2,236.8 923.1,237.8 925.9,238.8 928.8,239.7 931.7,240.7 934.6,241.6 937.5,242.5 940.3,243.4 943.2,244.3 946.1,245.1 949.0,245.9 951.8,246.7 954.7,247.5 957.6,248.3 960.5,249.1 963.4,249.8 966.2,250.6 969.1,251.3 972.0,252.0 974.9,252.7 977.8,253.4 980.6,254.1 983.5,254.7 986.4,255.3 989.3,256.0 992.2,256.6 995.0,257.2 997.9,257.8 1000.8,258.4 1003.7,258.9 1006.5,259.5 1009.4,260.0 1012.3,260.6 1015.2,261.1 1018.1,261.6 1020.9,262.1 1023.8,262.6 1026.7,263.1 1029.6,263.5 1032.5,264.0 1035.3,264.5 1038.2,264.9 1041.1,265.3 1044.0,265.8 1046.8,266.2 1049.7,266.6 1052.6,267.0 1055.5,267.4 1058.4,267.8 1061.2,268.2 1064.1,268.5 1067.0,268.9" class="target-line"/>
  <circle cx="782.1" cy="155.2" r="3.2" class="train"/>
  <circle cx="818.5" cy="184.8" r="3.2" class="train"/>
  <circle cx="864.0" cy="212.7" r="3.2" class="train"/>
  <circle cx="901.4" cy="229.8" r="3.2" class="train"/>
  <circle cx="947.7" cy="245.6" r="3.2" class="train"/>
  <circle cx="983.9" cy="254.8" r="3.2" class="train"/>
  <circle cx="1029.7" cy="263.6" r="3.2" class="train"/>
  <circle cx="1066.9" cy="268.9" r="3.2" class="train"/>
  <polygon points="790.5,157.2 785.0,168.2 796.0,168.2" class="validation"/>
  <polygon points="825.2,184.0 819.7,195.0 830.7,195.0" class="validation"/>
  <polygon points="859.4,204.7 853.9,215.7 864.9,215.7" class="validation"/>
  <polygon points="894.7,221.5 889.2,232.5 900.2,232.5" class="validation"/>
  <polygon points="946.9,239.8 941.4,250.8 952.4,250.8" class="validation"/>
  <polygon points="981.1,248.7 975.6,259.7 986.6,259.7" class="validation"/>
  <polygon points="1015.2,255.6 1009.7,266.6 1020.7,266.6" class="validation"/>
  <polygon points="1050.9,261.3 1045.4,272.3 1056.4,272.3" class="validation"/>
  <polyline points="782.0,155.1 784.9,157.7 787.8,160.3 790.6,162.8 793.5,165.3 796.4,167.7 799.3,170.1 802.2,172.5 805.0,174.7 807.9,177.0 810.8,179.2 813.7,181.3 816.5,183.4 819.4,185.5 822.3,187.5 825.2,189.5 828.1,191.5 830.9,193.4 833.8,195.2 836.7,197.1 839.6,198.8 842.5,200.6 845.3,202.3 848.2,204.0 851.1,205.7 854.0,207.3 856.8,208.9 859.7,210.4 862.6,212.0 865.5,213.5 868.4,214.9 871.2,216.4 874.1,217.8 877.0,219.1 879.9,220.5 882.8,221.8 885.6,223.1 888.5,224.4 891.4,225.6 894.3,226.9 897.2,228.0 900.0,229.2 902.9,230.4 905.8,231.5 908.7,232.6 911.5,233.7 914.4,234.7 917.3,235.8 920.2,236.8 923.1,237.8 925.9,238.8 928.8,239.7 931.7,240.7 934.6,241.6 937.5,242.5 940.3,243.4 943.2,244.3 946.1,245.1 949.0,245.9 951.8,246.7 954.7,247.5 957.6,248.3 960.5,249.1 963.4,249.8 966.2,250.6 969.1,251.3 972.0,252.0 974.9,252.7 977.8,253.4 980.6,254.1 983.5,254.7 986.4,255.3 989.3,256.0 992.2,256.6 995.0,257.2 997.9,257.8 1000.8,258.4 1003.7,258.9 1006.5,259.5 1009.4,260.0 1012.3,260.6 1015.2,261.1 1018.1,261.6 1020.9,262.1 1023.8,262.6 1026.7,263.1 1029.6,263.5 1032.5,264.0 1035.3,264.5 1038.2,264.9 1041.1,265.3 1044.0,265.8 1046.8,266.2 1049.7,266.6 1052.6,267.0 1055.5,267.4 1058.4,267.8 1061.2,268.2 1064.1,268.5 1067.0,268.9" class="eml-line"/>
  <text x="48.0" y="323.0" class="formula-name">beer_lambert</text>
  <text x="48.0" y="339.0" class="formula-expr">exp(-0.8 x)</text>
  <text x="48.0" y="355.0" class="status-worked">EML: worked</text>
  <line x1="78.0" y1="371.0" x2="363.0" y2="371.0" class="grid"/>
  <line x1="78.0" y1="437.0" x2="363.0" y2="437.0" class="grid"/>
  <line x1="78.0" y1="503.0" x2="363.0" y2="503.0" class="axis"/>
  <line x1="78.0" y1="371.0" x2="78.0" y2="503.0" class="axis"/>
  <text x="355.0" y="520.0" class="axis-label">x</text>
  <text x="60.0" y="379.0" class="axis-label">y</text>
  <polyline points="78.0,380.1 80.9,383.1 83.8,386.0 86.6,388.9 89.5,391.7 92.4,394.4 95.3,397.0 98.2,399.6 101.0,402.2 103.9,404.6 106.8,407.0 109.7,409.4 112.5,411.7 115.4,413.9 118.3,416.1 121.2,418.3 124.1,420.3 126.9,422.4 129.8,424.4 132.7,426.3 135.6,428.2 138.5,430.0 141.3,431.8 144.2,433.6 147.1,435.3 150.0,437.0 152.8,438.6 155.7,440.2 158.6,441.8 161.5,443.3 164.4,444.8 167.2,446.2 170.1,447.6 173.0,449.0 175.9,450.4 178.8,451.7 181.6,453.0 184.5,454.2 187.4,455.4 190.3,456.6 193.2,457.8 196.0,458.9 198.9,460.0 201.8,461.1 204.7,462.2 207.5,463.2 210.4,464.2 213.3,465.2 216.2,466.2 219.1,467.1 221.9,468.0 224.8,468.9 227.7,469.8 230.6,470.6 233.5,471.5 236.3,472.3 239.2,473.1 242.1,473.8 245.0,474.6 247.8,475.3 250.7,476.0 253.6,476.7 256.5,477.4 259.4,478.1 262.2,478.7 265.1,479.4 268.0,480.0 270.9,480.6 273.8,481.2 276.6,481.8 279.5,482.3 282.4,482.9 285.3,483.4 288.2,483.9 291.0,484.4 293.9,484.9 296.8,485.4 299.7,485.9 302.5,486.4 305.4,486.8 308.3,487.3 311.2,487.7 314.1,488.1 316.9,488.5 319.8,488.9 322.7,489.3 325.6,489.7 328.5,490.1 331.3,490.4 334.2,490.8 337.1,491.1 340.0,491.5 342.8,491.8 345.7,492.1 348.6,492.4 351.5,492.7 354.4,493.0 357.2,493.3 360.1,493.6 363.0,493.9" class="target-line"/>
  <circle cx="78.1" cy="380.2" r="3.2" class="train"/>
  <circle cx="114.5" cy="413.2" r="3.2" class="train"/>
  <circle cx="160.0" cy="442.5" r="3.2" class="train"/>
  <circle cx="197.4" cy="459.5" r="3.2" class="train"/>
  <circle cx="243.7" cy="474.3" r="3.2" class="train"/>
  <circle cx="279.9" cy="482.4" r="3.2" class="train"/>
  <circle cx="325.7" cy="489.7" r="3.2" class="train"/>
  <circle cx="362.9" cy="493.9" r="3.2" class="train"/>
  <polygon points="92.2,388.7 86.7,399.7 97.7,399.7" class="validation"/>
  <polygon points="124.7,415.3 119.2,426.3 130.2,426.3" class="validation"/>
  <polygon points="156.5,435.2 151.0,446.2 162.0,446.2" class="validation"/>
  <polygon points="189.5,450.8 184.0,461.8 195.0,461.8" class="validation"/>
  <polygon points="238.3,467.3 232.8,478.3 243.8,478.3" class="validation"/>
  <polygon points="270.3,475.0 264.8,486.0 275.8,486.0" class="validation"/>
  <polygon points="302.0,480.8 296.5,491.8 307.5,491.8" class="validation"/>
  <polygon points="335.4,485.4 329.9,496.4 340.9,496.4" class="validation"/>
  <polyline points="78.0,380.1 80.9,383.1 83.8,386.0 86.6,388.9 89.5,391.7 92.4,394.4 95.3,397.0 98.2,399.6 101.0,402.2 103.9,404.6 106.8,407.0 109.7,409.4 112.5,411.7 115.4,413.9 118.3,416.1 121.2,418.3 124.1,420.3 126.9,422.4 129.8,424.4 132.7,426.3 135.6,428.2 138.5,430.0 141.3,431.8 144.2,433.6 147.1,435.3 150.0,437.0 152.8,438.6 155.7,440.2 158.6,441.8 161.5,443.3 164.4,444.8 167.2,446.2 170.1,447.6 173.0,449.0 175.9,450.4 178.8,451.7 181.6,453.0 184.5,454.2 187.4,455.4 190.3,456.6 193.2,457.8 196.0,458.9 198.9,460.0 201.8,461.1 204.7,462.2 207.5,463.2 210.4,464.2 213.3,465.2 216.2,466.2 219.1,467.1 221.9,468.0 224.8,468.9 227.7,469.8 230.6,470.6 233.5,471.5 236.3,472.3 239.2,473.1 242.1,473.8 245.0,474.6 247.8,475.3 250.7,476.0 253.6,476.7 256.5,477.4 259.4,478.1 262.2,478.7 265.1,479.4 268.0,480.0 270.9,480.6 273.8,481.2 276.6,481.8 279.5,482.3 282.4,482.9 285.3,483.4 288.2,483.9 291.0,484.4 293.9,484.9 296.8,485.4 299.7,485.9 302.5,486.4 305.4,486.8 308.3,487.3 311.2,487.7 314.1,488.1 316.9,488.5 319.8,488.9 322.7,489.3 325.6,489.7 328.5,490.1 331.3,490.4 334.2,490.8 337.1,491.1 340.0,491.5 342.8,491.8 345.7,492.1 348.6,492.4 351.5,492.7 354.4,493.0 357.2,493.3 360.1,493.6 363.0,493.9" class="eml-line"/>
  <text x="400.0" y="323.0" class="formula-name">scaled_exp_growth</text>
  <text x="400.0" y="339.0" class="formula-expr">exp(0.4 x)</text>
  <text x="400.0" y="355.0" class="status-worked">EML: worked</text>
  <line x1="430.0" y1="371.0" x2="715.0" y2="371.0" class="grid"/>
  <line x1="430.0" y1="437.0" x2="715.0" y2="437.0" class="grid"/>
  <line x1="430.0" y1="503.0" x2="715.0" y2="503.0" class="axis"/>
  <line x1="430.0" y1="371.0" x2="430.0" y2="503.0" class="axis"/>
  <text x="707.0" y="520.0" class="axis-label">x</text>
  <text x="412.0" y="379.0" class="axis-label">y</text>
  <polyline points="430.0,493.9 432.9,493.4 435.8,493.0 438.6,492.5 441.5,492.0 444.4,491.5 447.3,491.0 450.2,490.4 453.0,489.9 455.9,489.4 458.8,488.8 461.7,488.3 464.5,487.7 467.4,487.2 470.3,486.6 473.2,486.0 476.1,485.4 478.9,484.8 481.8,484.2 484.7,483.5 487.6,482.9 490.5,482.3 493.3,481.6 496.2,480.9 499.1,480.3 502.0,479.6 504.8,478.9 507.7,478.1 510.6,477.4 513.5,476.7 516.4,475.9 519.2,475.2 522.1,474.4 525.0,473.6 527.9,472.8 530.8,472.0 533.6,471.2 536.5,470.3 539.4,469.5 542.3,468.6 545.2,467.7 548.0,466.8 550.9,465.9 553.8,465.0 556.7,464.1 559.5,463.1 562.4,462.1 565.3,461.2 568.2,460.2 571.1,459.1 573.9,458.1 576.8,457.0 579.7,456.0 582.6,454.9 585.5,453.8 588.3,452.7 591.2,451.5 594.1,450.4 597.0,449.2 599.8,448.0 602.7,446.8 605.6,445.5 608.5,444.3 611.4,443.0 614.2,441.7 617.1,440.4 620.0,439.0 622.9,437.7 625.8,436.3 628.6,434.9 631.5,433.5 634.4,432.0 637.3,430.5 640.2,429.0 643.0,427.5 645.9,425.9 648.8,424.4 651.7,422.8 654.5,421.1 657.4,419.5 660.3,417.8 663.2,416.1 666.1,414.4 668.9,412.6 671.8,410.8 674.7,409.0 677.6,407.1 680.5,405.2 683.3,403.3 686.2,401.4 689.1,399.4 692.0,397.4 694.8,395.4 697.7,393.3 700.6,391.2 703.5,389.0 706.4,386.9 709.2,384.6 712.1,382.4 715.0,380.1" class="target-line"/>
  <circle cx="430.1" cy="493.9" r="3.2" class="train"/>
  <circle cx="466.5" cy="487.4" r="3.2" class="train"/>
  <circle cx="512.0" cy="477.1" r="3.2" class="train"/>
  <circle cx="549.4" cy="466.4" r="3.2" class="train"/>
  <circle cx="595.7" cy="449.7" r="3.2" class="train"/>
  <circle cx="631.9" cy="433.3" r="3.2" class="train"/>
  <circle cx="677.7" cy="407.0" r="3.2" class="train"/>
  <circle cx="714.9" cy="380.2" r="3.2" class="train"/>
  <polygon points="451.3,484.7 445.8,495.7 456.8,495.7" class="validation"/>
  <polygon points="483.8,478.3 478.3,489.3 489.3,489.3" class="validation"/>
  <polygon points="515.7,470.6 510.2,481.6 521.2,481.6" class="validation"/>
  <polygon points="548.7,461.1 543.2,472.1 554.2,472.1" class="validation"/>
  <polygon points="597.5,443.5 592.0,454.5 603.0,454.5" class="validation"/>
  <polygon points="629.4,429.0 623.9,440.0 634.9,440.0" class="validation"/>
  <polygon points="661.2,411.8 655.7,422.8 666.7,422.8" class="validation"/>
  <polygon points="694.6,390.1 689.1,401.1 700.1,401.1" class="validation"/>
  <polyline points="430.0,493.9 432.9,493.4 435.8,493.0 438.6,492.5 441.5,492.0 444.4,491.5 447.3,491.0 450.2,490.4 453.0,489.9 455.9,489.4 458.8,488.8 461.7,488.3 464.5,487.7 467.4,487.2 470.3,486.6 473.2,486.0 476.1,485.4 478.9,484.8 481.8,484.2 484.7,483.5 487.6,482.9 490.5,482.3 493.3,481.6 496.2,480.9 499.1,480.3 502.0,479.6 504.8,478.9 507.7,478.1 510.6,477.4 513.5,476.7 516.4,475.9 519.2,475.2 522.1,474.4 525.0,473.6 527.9,472.8 530.8,472.0 533.6,471.2 536.5,470.3 539.4,469.5 542.3,468.6 545.2,467.7 548.0,466.8 550.9,465.9 553.8,465.0 556.7,464.1 559.5,463.1 562.4,462.1 565.3,461.2 568.2,460.2 571.1,459.1 573.9,458.1 576.8,457.0 579.7,456.0 582.6,454.9 585.5,453.8 588.3,452.7 591.2,451.5 594.1,450.4 597.0,449.2 599.8,448.0 602.7,446.8 605.6,445.5 608.5,444.3 611.4,443.0 614.2,441.7 617.1,440.4 620.0,439.0 622.9,437.7 625.8,436.3 628.6,434.9 631.5,433.5 634.4,432.0 637.3,430.5 640.2,429.0 643.0,427.5 645.9,425.9 648.8,424.4 651.7,422.8 654.5,421.1 657.4,419.5 660.3,417.8 663.2,416.1 666.1,414.4 668.9,412.6 671.8,410.8 674.7,409.0 677.6,407.1 680.5,405.2 683.3,403.3 686.2,401.4 689.1,399.4 692.0,397.4 694.8,395.4 697.7,393.3 700.6,391.2 703.5,389.0 706.4,386.9 709.2,384.6 712.1,382.4 715.0,380.1" class="eml-line"/>
  <text x="752.0" y="323.0" class="formula-name">scaled_exp_fast_decay</text>
  <text x="752.0" y="339.0" class="formula-expr">exp(-1.2 x)</text>
  <text x="752.0" y="355.0" class="status-worked">EML: worked</text>
  <line x1="782.0" y1="371.0" x2="1067.0" y2="371.0" class="grid"/>
  <line x1="782.0" y1="437.0" x2="1067.0" y2="437.0" class="grid"/>
  <line x1="782.0" y1="503.0" x2="1067.0" y2="503.0" class="axis"/>
  <line x1="782.0" y1="371.0" x2="782.0" y2="503.0" class="axis"/>
  <text x="1059.0" y="520.0" class="axis-label">x</text>
  <text x="764.0" y="379.0" class="axis-label">y</text>
  <polyline points="782.0,380.1 784.9,383.7 787.8,387.1 790.6,390.5 793.5,393.8 796.4,396.9 799.3,400.0 802.2,403.0 805.0,405.9 807.9,408.7 810.8,411.4 813.7,414.1 816.5,416.6 819.4,419.1 822.3,421.5 825.2,423.8 828.1,426.1 830.9,428.3 833.8,430.5 836.7,432.5 839.6,434.5 842.5,436.5 845.3,438.4 848.2,440.2 851.1,442.0 854.0,443.7 856.8,445.4 859.7,447.0 862.6,448.6 865.5,450.1 868.4,451.6 871.2,453.1 874.1,454.4 877.0,455.8 879.9,457.1 882.8,458.4 885.6,459.6 888.5,460.8 891.4,462.0 894.3,463.1 897.2,464.2 900.0,465.3 902.9,466.3 905.8,467.3 908.7,468.3 911.5,469.2 914.4,470.1 917.3,471.0 920.2,471.9 923.1,472.7 925.9,473.5 928.8,474.3 931.7,475.1 934.6,475.8 937.5,476.5 940.3,477.2 943.2,477.9 946.1,478.6 949.0,479.2 951.8,479.8 954.7,480.4 957.6,481.0 960.5,481.6 963.4,482.1 966.2,482.6 969.1,483.2 972.0,483.7 974.9,484.1 977.8,484.6 980.6,485.1 983.5,485.5 986.4,485.9 989.3,486.3 992.2,486.7 995.0,487.1 997.9,487.5 1000.8,487.9 1003.7,488.2 1006.5,488.6 1009.4,488.9 1012.3,489.3 1015.2,489.6 1018.1,489.9 1020.9,490.2 1023.8,490.5 1026.7,490.7 1029.6,491.0 1032.5,491.3 1035.3,491.5 1038.2,491.8 1041.1,492.0 1044.0,492.3 1046.8,492.5 1049.7,492.7 1052.6,492.9 1055.5,493.1 1058.4,493.3 1061.2,493.5 1064.1,493.7 1067.0,493.9" class="target-line"/>
  <circle cx="782.1" cy="380.2" r="3.2" class="train"/>
  <circle cx="818.5" cy="418.3" r="3.2" class="train"/>
  <circle cx="864.0" cy="449.4" r="3.2" class="train"/>
  <circle cx="901.4" cy="465.8" r="3.2" class="train"/>
  <circle cx="947.7" cy="478.9" r="3.2" class="train"/>
  <circle cx="983.9" cy="485.6" r="3.2" class="train"/>
  <circle cx="1029.7" cy="491.0" r="3.2" class="train"/>
  <circle cx="1066.9" cy="493.9" r="3.2" class="train"/>
  <polygon points="793.3,388.1 787.8,399.1 798.8,399.1" class="validation"/>
  <polygon points="826.9,419.7 821.4,430.7 832.4,430.7" class="validation"/>
  <polygon points="860.0,441.6 854.5,452.6 865.5,452.6" class="validation"/>
  <polygon points="894.1,457.6 888.6,468.6 899.6,468.6" class="validation"/>
  <polygon points="944.6,472.7 939.1,483.7 950.1,483.7" class="validation"/>
  <polygon points="977.7,479.1 972.2,490.1 983.2,490.1" class="validation"/>
  <polygon points="1010.6,483.6 1005.1,494.6 1016.1,494.6" class="validation"/>
  <polygon points="1045.2,486.9 1039.7,497.9 1050.7,497.9" class="validation"/>
  <polyline points="782.0,380.1 784.9,383.7 787.8,387.1 790.6,390.5 793.5,393.8 796.4,396.9 799.3,400.0 802.2,403.0 805.0,405.9 807.9,408.7 810.8,411.4 813.7,414.1 816.5,416.6 819.4,419.1 822.3,421.5 825.2,423.8 828.1,426.1 830.9,428.3 833.8,430.5 836.7,432.5 839.6,434.5 842.5,436.5 845.3,438.4 848.2,440.2 851.1,442.0 854.0,443.7 856.8,445.4 859.7,447.0 862.6,448.6 865.5,450.1 868.4,451.6 871.2,453.1 874.1,454.4 877.0,455.8 879.9,457.1 882.8,458.4 885.6,459.6 888.5,460.8 891.4,462.0 894.3,463.1 897.2,464.2 900.0,465.3 902.9,466.3 905.8,467.3 908.7,468.3 911.5,469.2 914.4,470.1 917.3,471.0 920.2,471.9 923.1,472.7 925.9,473.5 928.8,474.3 931.7,475.1 934.6,475.8 937.5,476.5 940.3,477.2 943.2,477.9 946.1,478.6 949.0,479.2 951.8,479.8 954.7,480.4 957.6,481.0 960.5,481.6 963.4,482.1 966.2,482.6 969.1,483.2 972.0,483.7 974.9,484.1 977.8,484.6 980.6,485.1 983.5,485.5 986.4,485.9 989.3,486.3 992.2,486.7 995.0,487.1 997.9,487.5 1000.8,487.9 1003.7,488.2 1006.5,488.6 1009.4,488.9 1012.3,489.3 1015.2,489.6 1018.1,489.9 1020.9,490.2 1023.8,490.5 1026.7,490.7 1029.6,491.0 1032.5,491.3 1035.3,491.5 1038.2,491.8 1041.1,492.0 1044.0,492.3 1046.8,492.5 1049.7,492.7 1052.6,492.9 1055.5,493.1 1058.4,493.3 1061.2,493.5 1064.1,493.7 1067.0,493.9" class="eml-line"/>
  <text x="48.0" y="548.0" class="formula-name">arrhenius</text>
  <text x="48.0" y="564.0" class="formula-expr">exp(-0.8 / x)</text>
  <text x="48.0" y="580.0" class="status-worked">EML: worked</text>
  <line x1="78.0" y1="596.0" x2="363.0" y2="596.0" class="grid"/>
  <line x1="78.0" y1="662.0" x2="363.0" y2="662.0" class="grid"/>
  <line x1="78.0" y1="728.0" x2="363.0" y2="728.0" class="axis"/>
  <line x1="78.0" y1="596.0" x2="78.0" y2="728.0" class="axis"/>
  <text x="355.0" y="745.0" class="axis-label">x</text>
  <text x="60.0" y="604.0" class="axis-label">y</text>
  <polyline points="78.0,718.9 80.9,715.6 83.8,712.5 86.6,709.4 89.5,706.3 92.4,703.4 95.3,700.5 98.2,697.8 101.0,695.1 103.9,692.5 106.8,689.9 109.7,687.5 112.5,685.1 115.4,682.8 118.3,680.6 121.2,678.4 124.1,676.4 126.9,674.3 129.8,672.4 132.7,670.5 135.6,668.6 138.5,666.8 141.3,665.1 144.2,663.4 147.1,661.7 150.0,660.2 152.8,658.6 155.7,657.1 158.6,655.6 161.5,654.2 164.4,652.8 167.2,651.5 170.1,650.2 173.0,648.9 175.9,647.7 178.8,646.5 181.6,645.3 184.5,644.1 187.4,643.0 190.3,641.9 193.2,640.9 196.0,639.8 198.9,638.8 201.8,637.8 204.7,636.8 207.5,635.9 210.4,635.0 213.3,634.1 216.2,633.2 219.1,632.3 221.9,631.5 224.8,630.7 227.7,629.9 230.6,629.1 233.5,628.3 236.3,627.5 239.2,626.8 242.1,626.1 245.0,625.4 247.8,624.7 250.7,624.0 253.6,623.3 256.5,622.7 259.4,622.0 262.2,621.4 265.1,620.8 268.0,620.2 270.9,619.6 273.8,619.0 276.6,618.4 279.5,617.9 282.4,617.3 285.3,616.8 288.2,616.2 291.0,615.7 293.9,615.2 296.8,614.7 299.7,614.2 302.5,613.7 305.4,613.2 308.3,612.8 311.2,612.3 314.1,611.8 316.9,611.4 319.8,610.9 322.7,610.5 325.6,610.1 328.5,609.7 331.3,609.3 334.2,608.8 337.1,608.4 340.0,608.1 342.8,607.7 345.7,607.3 348.6,606.9 351.5,606.5 354.4,606.2 357.2,605.8 360.1,605.5 363.0,605.1" class="target-line"/>
  <circle cx="78.1" cy="718.8" r="3.2" class="train"/>
  <circle cx="114.5" cy="683.6" r="3.2" class="train"/>
  <circle cx="160.0" cy="654.9" r="3.2" class="train"/>
  <circle cx="197.4" cy="639.3" r="3.2" class="train"/>
  <circle cx="243.7" cy="625.7" r="3.2" class="train"/>
  <circle cx="279.9" cy="617.8" r="3.2" class="train"/>
  <circle cx="325.7" cy="610.1" r="3.2" class="train"/>
  <circle cx="362.9" cy="605.1" r="3.2" class="train"/>
  <polygon points="89.3,701.0 83.8,712.0 94.8,712.0" class="validation"/>
  <polygon points="121.4,672.8 115.9,683.8 126.9,683.8" class="validation"/>
  <polygon points="152.9,653.1 147.4,664.1 158.4,664.1" class="validation"/>
  <polygon points="185.5,638.2 180.0,649.2 191.0,649.2" class="validation"/>
  <polygon points="233.8,622.7 228.3,633.7 239.3,633.7" class="validation"/>
  <polygon points="265.3,615.2 259.8,626.2 270.8,626.2" class="validation"/>
  <polygon points="296.7,609.2 291.2,620.2 302.2,620.2" class="validation"/>
  <polygon points="329.7,604.0 324.2,615.0 335.2,615.0" class="validation"/>
  <polyline points="78.0,718.9 80.9,715.6 83.8,712.5 86.6,709.4 89.5,706.3 92.4,703.4 95.3,700.5 98.2,697.8 101.0,695.1 103.9,692.5 106.8,689.9 109.7,687.5 112.5,685.1 115.4,682.8 118.3,680.6 121.2,678.4 124.1,676.4 126.9,674.3 129.8,672.4 132.7,670.5 135.6,668.6 138.5,666.8 141.3,665.1 144.2,663.4 147.1,661.7 150.0,660.2 152.8,658.6 155.7,657.1 158.6,655.6 161.5,654.2 164.4,652.8 167.2,651.5 170.1,650.2 173.0,648.9 175.9,647.7 178.8,646.5 181.6,645.3 184.5,644.1 187.4,643.0 190.3,641.9 193.2,640.9 196.0,639.8 198.9,638.8 201.8,637.8 204.7,636.8 207.5,635.9 210.4,635.0 213.3,634.1 216.2,633.2 219.1,632.3 221.9,631.5 224.8,630.7 227.7,629.9 230.6,629.1 233.5,628.3 236.3,627.5 239.2,626.8 242.1,626.1 245.0,625.4 247.8,624.7 250.7,624.0 253.6,623.3 256.5,622.7 259.4,622.0 262.2,621.4 265.1,620.8 268.0,620.2 270.9,619.6 273.8,619.0 276.6,618.4 279.5,617.9 282.4,617.3 285.3,616.8 288.2,616.2 291.0,615.7 293.9,615.2 296.8,614.7 299.7,614.2 302.5,613.7 305.4,613.2 308.3,612.8 311.2,612.3 314.1,611.8 316.9,611.4 319.8,610.9 322.7,610.5 325.6,610.1 328.5,609.7 331.3,609.3 334.2,608.8 337.1,608.4 340.0,608.1 342.8,607.7 345.7,607.3 348.6,606.9 351.5,606.5 354.4,606.2 357.2,605.8 360.1,605.5 363.0,605.1" class="eml-line"/>
  <text x="400.0" y="548.0" class="formula-name">michaelis_menten</text>
  <text x="400.0" y="564.0" class="formula-expr">2x / (0.5 + x)</text>
  <text x="400.0" y="580.0" class="status-worked">EML: worked</text>
  <line x1="430.0" y1="596.0" x2="715.0" y2="596.0" class="grid"/>
  <line x1="430.0" y1="662.0" x2="715.0" y2="662.0" class="grid"/>
  <line x1="430.0" y1="728.0" x2="715.0" y2="728.0" class="axis"/>
  <line x1="430.0" y1="596.0" x2="430.0" y2="728.0" class="axis"/>
  <text x="707.0" y="745.0" class="axis-label">x</text>
  <text x="412.0" y="604.0" class="axis-label">y</text>
  <polyline points="430.0,718.9 432.9,708.4 435.8,699.4 438.6,691.8 441.5,685.2 444.4,679.4 447.3,674.3 450.2,669.7 453.0,665.7 455.9,662.0 458.8,658.7 461.7,655.7 464.5,652.9 467.4,650.4 470.3,648.1 473.2,646.0 476.1,644.0 478.9,642.1 481.8,640.4 484.7,638.8 487.6,637.3 490.5,635.9 493.3,634.6 496.2,633.4 499.1,632.2 502.0,631.1 504.8,630.0 507.7,629.1 510.6,628.1 513.5,627.2 516.4,626.4 519.2,625.6 522.1,624.8 525.0,624.1 527.9,623.4 530.8,622.7 533.6,622.1 536.5,621.4 539.4,620.8 542.3,620.3 545.2,619.7 548.0,619.2 550.9,618.7 553.8,618.2 556.7,617.7 559.5,617.3 562.4,616.9 565.3,616.4 568.2,616.0 571.1,615.6 573.9,615.3 576.8,614.9 579.7,614.5 582.6,614.2 585.5,613.9 588.3,613.5 591.2,613.2 594.1,612.9 597.0,612.6 599.8,612.3 602.7,612.0 605.6,611.8 608.5,611.5 611.4,611.3 614.2,611.0 617.1,610.8 620.0,610.5 622.9,610.3 625.8,610.1 628.6,609.8 631.5,609.6 634.4,609.4 637.3,609.2 640.2,609.0 643.0,608.8 645.9,608.6 648.8,608.4 651.7,608.3 654.5,608.1 657.4,607.9 660.3,607.7 663.2,607.6 666.1,607.4 668.9,607.3 671.8,607.1 674.7,606.9 677.6,606.8 680.5,606.7 683.3,606.5 686.2,606.4 689.1,606.2 692.0,606.1 694.8,606.0 697.7,605.8 700.6,605.7 703.5,605.6 706.4,605.5 709.2,605.3 712.1,605.2 715.0,605.1" class="target-line"/>
  <circle cx="430.1" cy="718.6" r="3.2" class="train"/>
  <circle cx="466.5" cy="651.2" r="3.2" class="train"/>
  <circle cx="512.0" cy="627.7" r="3.2" class="train"/>
  <circle cx="549.4" cy="619.0" r="3.2" class="train"/>
  <circle cx="595.7" cy="612.7" r="3.2" class="train"/>
  <circle cx="631.9" cy="609.6" r="3.2" class="train"/>
  <circle cx="677.7" cy="606.8" r="3.2" class="train"/>
  <circle cx="714.9" cy="605.1" r="3.2" class="train"/>
  <polygon points="431.6,707.1 426.1,718.1 437.1,718.1" class="validation"/>
  <polygon points="465.8,646.3 460.3,657.3 471.3,657.3" class="validation"/>
  <polygon points="499.3,626.6 493.8,637.6 504.8,637.6" class="validation"/>
  <polygon points="533.9,616.5 528.4,627.5 539.4,627.5" class="validation"/>
  <polygon points="585.2,608.4 579.7,619.4 590.7,619.4" class="validation"/>
  <polygon points="618.7,605.1 613.2,616.1 624.2,616.1" class="validation"/>
  <polygon points="652.1,602.7 646.6,613.7 657.6,613.7" class="validation"/>
  <polygon points="687.2,600.8 681.7,611.8 692.7,611.8" class="validation"/>
  <polyline points="430.0,718.9 432.9,708.4 435.8,699.4 438.6,691.8 441.5,685.2 444.4,679.4 447.3,674.3 450.2,669.7 453.0,665.7 455.9,662.0 458.8,658.7 461.7,655.7 464.5,652.9 467.4,650.4 470.3,648.1 473.2,646.0 476.1,644.0 478.9,642.1 481.8,640.4 484.7,638.8 487.6,637.3 490.5,635.9 493.3,634.6 496.2,633.4 499.1,632.2 502.0,631.1 504.8,630.0 507.7,629.1 510.6,628.1 513.5,627.2 516.4,626.4 519.2,625.6 522.1,624.8 525.0,624.1 527.9,623.4 530.8,622.7 533.6,622.1 536.5,621.4 539.4,620.8 542.3,620.3 545.2,619.7 548.0,619.2 550.9,618.7 553.8,618.2 556.7,617.7 559.5,617.3 562.4,616.9 565.3,616.4 568.2,616.0 571.1,615.6 573.9,615.3 576.8,614.9 579.7,614.5 582.6,614.2 585.5,613.9 588.3,613.5 591.2,613.2 594.1,612.9 597.0,612.6 599.8,612.3 602.7,612.0 605.6,611.8 608.5,611.5 611.4,611.3 614.2,611.0 617.1,610.8 620.0,610.5 622.9,610.3 625.8,610.1 628.6,609.8 631.5,609.6 634.4,609.4 637.3,609.2 640.2,609.0 643.0,608.8 645.9,608.6 648.8,608.4 651.7,608.3 654.5,608.1 657.4,607.9 660.3,607.7 663.2,607.6 666.1,607.4 668.9,607.3 671.8,607.1 674.7,606.9 677.6,606.8 680.5,606.7 683.3,606.5 686.2,606.4 689.1,606.2 692.0,606.1 694.8,606.0 697.7,605.8 700.6,605.7 703.5,605.6 706.4,605.5 709.2,605.3 712.1,605.2 715.0,605.1" class="eml-line"/>
  <text x="752.0" y="548.0" class="formula-name">logistic</text>
  <text x="752.0" y="564.0" class="formula-expr">1 / (1 + 2 exp(-1.3 x))</text>
  <text x="752.0" y="580.0" class="status-failed">EML: failed (constant policy; depth exceeded)</text>
  <line x1="782.0" y1="596.0" x2="1067.0" y2="596.0" class="grid"/>
  <line x1="782.0" y1="662.0" x2="1067.0" y2="662.0" class="grid"/>
  <line x1="782.0" y1="728.0" x2="1067.0" y2="728.0" class="axis"/>
  <line x1="782.0" y1="596.0" x2="782.0" y2="728.0" class="axis"/>
  <text x="1059.0" y="745.0" class="axis-label">x</text>
  <text x="764.0" y="604.0" class="axis-label">y</text>
  <polyline points="782.0,718.9 784.9,716.4 787.8,713.8 790.6,711.2 793.5,708.5 796.4,705.8 799.3,703.1 802.2,700.3 805.0,697.5 807.9,694.7 810.8,691.9 813.7,689.1 816.5,686.3 819.4,683.5 822.3,680.7 825.2,677.9 828.1,675.2 830.9,672.5 833.8,669.8 836.7,667.1 839.6,664.6 842.5,662.0 845.3,659.5 848.2,657.1 851.1,654.8 854.0,652.5 856.8,650.2 859.7,648.1 862.6,646.0 865.5,643.9 868.4,642.0 871.2,640.1 874.1,638.3 877.0,636.6 879.9,634.9 882.8,633.3 885.6,631.7 888.5,630.3 891.4,628.9 894.3,627.5 897.2,626.3 900.0,625.1 902.9,623.9 905.8,622.8 908.7,621.8 911.5,620.8 914.4,619.8 917.3,618.9 920.2,618.1 923.1,617.3 925.9,616.6 928.8,615.8 931.7,615.2 934.6,614.5 937.5,613.9 940.3,613.4 943.2,612.8 946.1,612.3 949.0,611.9 951.8,611.4 954.7,611.0 957.6,610.6 960.5,610.2 963.4,609.9 966.2,609.6 969.1,609.3 972.0,609.0 974.9,608.7 977.8,608.4 980.6,608.2 983.5,608.0 986.4,607.8 989.3,607.6 992.2,607.4 995.0,607.2 997.9,607.0 1000.8,606.9 1003.7,606.7 1006.5,606.6 1009.4,606.5 1012.3,606.4 1015.2,606.3 1018.1,606.1 1020.9,606.1 1023.8,606.0 1026.7,605.9 1029.6,605.8 1032.5,605.7 1035.3,605.6 1038.2,605.6 1041.1,605.5 1044.0,605.5 1046.8,605.4 1049.7,605.4 1052.6,605.3 1055.5,605.3 1058.4,605.2 1061.2,605.2 1064.1,605.1 1067.0,605.1" class="target-line"/>
  <circle cx="782.1" cy="718.8" r="3.2" class="train"/>
  <circle cx="818.5" cy="684.4" r="3.2" class="train"/>
  <circle cx="864.0" cy="645.0" r="3.2" class="train"/>
  <circle cx="901.4" cy="624.5" r="3.2" class="train"/>
  <circle cx="947.7" cy="612.1" r="3.2" class="train"/>
  <circle cx="983.9" cy="608.0" r="3.2" class="train"/>
  <circle cx="1029.7" cy="605.8" r="3.2" class="train"/>
  <circle cx="1066.9" cy="605.1" r="3.2" class="train"/>
  <polygon points="787.6,708.4 782.1,719.4 793.1,719.4" class="validation"/>
  <polygon points="823.5,674.0 818.0,685.0 829.0,685.0" class="validation"/>
  <polygon points="858.8,643.3 853.3,654.3 864.3,654.3" class="validation"/>
  <polygon points="895.3,621.6 889.8,632.6 900.8,632.6" class="validation"/>
  <polygon points="949.3,606.3 943.8,617.3 954.8,617.3" class="validation"/>
  <polygon points="984.6,602.4 979.1,613.4 990.1,613.4" class="validation"/>
  <polygon points="1019.7,600.6 1014.2,611.6 1025.2,611.6" class="validation"/>
  <polygon points="1056.7,599.7 1051.2,610.7 1062.2,610.7" class="validation"/>
  <text x="48.0" y="773.0" class="formula-name">shockley</text>
  <text x="48.0" y="789.0" class="formula-expr">0.2 (exp(1.4 x) - 1)</text>
  <text x="48.0" y="805.0" class="status-worked">EML: worked</text>
  <line x1="78.0" y1="821.0" x2="363.0" y2="821.0" class="grid"/>
  <line x1="78.0" y1="887.0" x2="363.0" y2="887.0" class="grid"/>
  <line x1="78.0" y1="953.0" x2="363.0" y2="953.0" class="axis"/>
  <line x1="78.0" y1="821.0" x2="78.0" y2="953.0" class="axis"/>
  <text x="355.0" y="970.0" class="axis-label">x</text>
  <text x="60.0" y="829.0" class="axis-label">y</text>
  <polyline points="78.0,943.9 80.9,943.7 83.8,943.5 86.6,943.2 89.5,943.0 92.4,942.8 95.3,942.5 98.2,942.3 101.0,942.0 103.9,941.8 106.8,941.5 109.7,941.2 112.5,940.9 115.4,940.6 118.3,940.3 121.2,940.0 124.1,939.7 126.9,939.3 129.8,939.0 132.7,938.7 135.6,938.3 138.5,937.9 141.3,937.5 144.2,937.1 147.1,936.7 150.0,936.3 152.8,935.9 155.7,935.5 158.6,935.0 161.5,934.5 164.4,934.1 167.2,933.6 170.1,933.1 173.0,932.5 175.9,932.0 178.8,931.4 181.6,930.9 184.5,930.3 187.4,929.7 190.3,929.1 193.2,928.4 196.0,927.8 198.9,927.1 201.8,926.4 204.7,925.7 207.5,925.0 210.4,924.2 213.3,923.4 216.2,922.6 219.1,921.8 221.9,921.0 224.8,920.1 227.7,919.2 230.6,918.3 233.5,917.3 236.3,916.4 239.2,915.4 242.1,914.3 245.0,913.3 247.8,912.2 250.7,911.1 253.6,909.9 256.5,908.7 259.4,907.5 262.2,906.2 265.1,904.9 268.0,903.6 270.9,902.3 273.8,900.8 276.6,899.4 279.5,897.9 282.4,896.4 285.3,894.8 288.2,893.2 291.0,891.5 293.9,889.8 296.8,888.0 299.7,886.2 302.5,884.4 305.4,882.4 308.3,880.5 311.2,878.4 314.1,876.4 316.9,874.2 319.8,872.0 322.7,869.7 325.6,867.4 328.5,865.0 331.3,862.5 334.2,860.0 337.1,857.3 340.0,854.6 342.8,851.9 345.7,849.0 348.6,846.1 351.5,843.1 354.4,840.0 357.2,836.8 360.1,833.5 363.0,830.1" class="target-line"/>
  <circle cx="78.1" cy="943.9" r="3.2" class="train"/>
  <circle cx="114.5" cy="940.7" r="3.2" class="train"/>
  <circle cx="160.0" cy="934.8" r="3.2" class="train"/>
  <circle cx="197.4" cy="927.5" r="3.2" class="train"/>
  <circle cx="243.7" cy="913.7" r="3.2" class="train"/>
  <circle cx="279.9" cy="897.7" r="3.2" class="train"/>
  <circle cx="325.7" cy="867.3" r="3.2" class="train"/>
  <circle cx="362.9" cy="830.2" r="3.2" class="train"/>
  <polygon points="85.0,937.9 79.5,948.9 90.5,948.9" class="validation"/>
  <polygon points="118.5,934.8 113.0,945.8 124.0,945.8" class="validation"/>
  <polygon points="151.3,930.6 145.8,941.6 156.8,941.6" class="validation"/>
  <polygon points="185.3,924.6 179.8,935.6 190.8,935.6" class="validation"/>
  <polygon points="235.5,911.1 230.0,922.1 241.0,922.1" class="validation"/>
  <polygon points="268.4,897.9 262.9,908.9 273.9,908.9" class="validation"/>
  <polygon points="301.1,879.8 295.6,890.8 306.6,890.8" class="validation"/>
  <polygon points="335.5,853.3 330.0,864.3 341.0,864.3" class="validation"/>
  <polyline points="78.0,943.9 80.9,943.7 83.8,943.5 86.6,943.2 89.5,943.0 92.4,942.8 95.3,942.5 98.2,942.3 101.0,942.0 103.9,941.8 106.8,941.5 109.7,941.2 112.5,940.9 115.4,940.6 118.3,940.3 121.2,940.0 124.1,939.7 126.9,939.3 129.8,939.0 132.7,938.7 135.6,938.3 138.5,937.9 141.3,937.5 144.2,937.1 147.1,936.7 150.0,936.3 152.8,935.9 155.7,935.5 158.6,935.0 161.5,934.5 164.4,934.1 167.2,933.6 170.1,933.1 173.0,932.5 175.9,932.0 178.8,931.4 181.6,930.9 184.5,930.3 187.4,929.7 190.3,929.1 193.2,928.4 196.0,927.8 198.9,927.1 201.8,926.4 204.7,925.7 207.5,925.0 210.4,924.2 213.3,923.4 216.2,922.6 219.1,921.8 221.9,921.0 224.8,920.1 227.7,919.2 230.6,918.3 233.5,917.3 236.3,916.4 239.2,915.4 242.1,914.3 245.0,913.3 247.8,912.2 250.7,911.1 253.6,909.9 256.5,908.7 259.4,907.5 262.2,906.2 265.1,904.9 268.0,903.6 270.9,902.3 273.8,900.8 276.6,899.4 279.5,897.9 282.4,896.4 285.3,894.8 288.2,893.2 291.0,891.5 293.9,889.8 296.8,888.0 299.7,886.2 302.5,884.4 305.4,882.4 308.3,880.5 311.2,878.4 314.1,876.4 316.9,874.2 319.8,872.0 322.7,869.7 325.6,867.4 328.5,865.0 331.3,862.5 334.2,860.0 337.1,857.3 340.0,854.6 342.8,851.9 345.7,849.0 348.6,846.1 351.5,843.1 354.4,840.0 357.2,836.8 360.1,833.5 363.0,830.1" class="eml-line"/>
  <text x="400.0" y="773.0" class="formula-name">damped_oscillator</text>
  <text x="400.0" y="789.0" class="formula-expr">exp(-0.15 t) cos(2.5 t + 0.2)</text>
  <text x="400.0" y="805.0" class="status-failed">EML: failed (unsupported operator)</text>
  <line x1="430.0" y1="821.0" x2="715.0" y2="821.0" class="grid"/>
  <line x1="430.0" y1="887.0" x2="715.0" y2="887.0" class="grid"/>
  <line x1="430.0" y1="953.0" x2="715.0" y2="953.0" class="axis"/>
  <line x1="430.0" y1="821.0" x2="430.0" y2="953.0" class="axis"/>
  <text x="707.0" y="970.0" class="axis-label">t</text>
  <text x="412.0" y="829.0" class="axis-label">y</text>
  <polyline points="430.0,830.1 432.9,833.2 435.8,837.6 438.6,843.1 441.5,849.6 444.4,857.0 447.3,865.0 450.2,873.5 453.0,882.2 455.9,891.0 458.8,899.6 461.7,907.9 464.5,915.6 467.4,922.7 470.3,928.9 473.2,934.2 476.1,938.4 478.9,941.4 481.8,943.3 484.7,943.9 487.6,943.3 490.5,941.6 493.3,938.7 496.2,934.8 499.1,930.0 502.0,924.4 504.8,918.2 507.7,911.4 510.6,904.3 513.5,897.1 516.4,889.8 519.2,882.7 522.1,876.0 525.0,869.7 527.9,864.0 530.8,859.1 533.6,854.9 536.5,851.7 539.4,849.4 542.3,848.2 545.2,847.9 548.0,848.7 550.9,850.4 553.8,853.0 556.7,856.4 559.5,860.6 562.4,865.4 565.3,870.7 568.2,876.3 571.1,882.3 573.9,888.3 576.8,894.3 579.7,900.1 582.6,905.6 585.5,910.7 588.3,915.2 591.2,919.1 594.1,922.4 597.0,924.8 599.8,926.5 602.7,927.3 605.6,927.3 608.5,926.5 611.4,924.9 614.2,922.5 617.1,919.5 620.0,915.9 622.9,911.8 625.8,907.3 628.6,902.6 631.5,897.6 634.4,892.6 637.3,887.7 640.2,883.0 643.0,878.5 645.9,874.4 648.8,870.7 651.7,867.6 654.5,865.1 657.4,863.3 660.3,862.1 663.2,861.6 666.1,861.8 668.9,862.6 671.8,864.1 674.7,866.2 677.6,868.9 680.5,872.0 683.3,875.4 686.2,879.2 689.1,883.2 692.0,887.3 694.8,891.4 697.7,895.5 700.6,899.4 703.5,903.0 706.4,906.3 709.2,909.2 712.1,911.7 715.0,913.6" class="target-line"/>
  <circle cx="430.1" cy="830.2" r="3.2" class="train"/>
  <circle cx="466.5" cy="920.5" r="3.2" class="train"/>
  <circle cx="512.0" cy="900.8" r="3.2" class="train"/>
  <circle cx="549.4" cy="849.4" r="3.2" class="train"/>
  <circle cx="595.7" cy="923.9" r="3.2" class="train"/>
  <circle cx="631.9" cy="897.0" r="3.2" class="train"/>
  <circle cx="677.7" cy="869.0" r="3.2" class="train"/>
  <circle cx="714.9" cy="913.5" r="3.2" class="train"/>
  <polygon points="432.3,827.0 426.8,838.0 437.8,838.0" class="validation"/>
  <polygon points="468.9,920.5 463.4,931.5 474.4,931.5" class="validation"/>
  <polygon points="504.9,912.6 499.4,923.6 510.4,923.6" class="validation"/>
  <polygon points="542.1,842.7 536.6,853.7 547.6,853.7" class="validation"/>
  <polygon points="597.1,919.4 591.6,930.4 602.6,930.4" class="validation"/>
  <polygon points="633.1,889.4 627.6,900.4 638.6,900.4" class="validation"/>
  <polygon points="668.9,857.1 663.4,868.1 674.4,868.1" class="validation"/>
  <polygon points="706.6,901.0 701.1,912.0 712.1,912.0" class="validation"/>
  <text x="752.0" y="773.0" class="formula-name">planck</text>
  <text x="752.0" y="789.0" class="formula-expr">x^3 / (exp(x) - 1)</text>
  <text x="752.0" y="805.0" class="status-failed">EML: failed (constant policy; depth exceeded)</text>
  <line x1="782.0" y1="821.0" x2="1067.0" y2="821.0" class="grid"/>
  <line x1="782.0" y1="887.0" x2="1067.0" y2="887.0" class="grid"/>
  <line x1="782.0" y1="953.0" x2="1067.0" y2="953.0" class="axis"/>
  <line x1="782.0" y1="821.0" x2="782.0" y2="953.0" class="axis"/>
  <text x="1059.0" y="970.0" class="axis-label">x</text>
  <text x="764.0" y="829.0" class="axis-label">y</text>
  <polyline points="782.0,943.9 784.9,941.3 787.8,938.1 790.6,934.4 793.5,930.2 796.4,925.6 799.3,920.8 802.2,915.7 805.0,910.5 807.9,905.2 810.8,899.9 813.7,894.5 816.5,889.3 819.4,884.1 822.3,879.1 825.2,874.2 828.1,869.5 830.9,865.0 833.8,860.8 836.7,856.8 839.6,853.1 842.5,849.6 845.3,846.5 848.2,843.6 851.1,841.0 854.0,838.7 856.8,836.7 859.7,834.9 862.6,833.5 865.5,832.3 868.4,831.4 871.2,830.7 874.1,830.3 877.0,830.1 879.9,830.2 882.8,830.4 885.6,830.9 888.5,831.6 891.4,832.4 894.3,833.4 897.2,834.6 900.0,835.9 902.9,837.4 905.8,838.9 908.7,840.6 911.5,842.4 914.4,844.3 917.3,846.3 920.2,848.3 923.1,850.4 925.9,852.5 928.8,854.7 931.7,856.9 934.6,859.2 937.5,861.5 940.3,863.7 943.2,866.0 946.1,868.3 949.0,870.6 951.8,872.9 954.7,875.1 957.6,877.4 960.5,879.6 963.4,881.8 966.2,884.0 969.1,886.1 972.0,888.2 974.9,890.2 977.8,892.2 980.6,894.2 983.5,896.2 986.4,898.0 989.3,899.9 992.2,901.7 995.0,903.4 997.9,905.1 1000.8,906.8 1003.7,908.4 1006.5,910.0 1009.4,911.5 1012.3,913.0 1015.2,914.4 1018.1,915.7 1020.9,917.1 1023.8,918.4 1026.7,919.6 1029.6,920.8 1032.5,921.9 1035.3,923.0 1038.2,924.1 1041.1,925.1 1044.0,926.1 1046.8,927.1 1049.7,928.0 1052.6,928.9 1055.5,929.7 1058.4,930.5 1061.2,931.3 1064.1,932.0 1067.0,932.8" class="target-line"/>
  <circle cx="782.1" cy="943.8" r="3.2" class="train"/>
  <circle cx="818.5" cy="885.8" r="3.2" class="train"/>
  <circle cx="864.0" cy="832.8" r="3.2" class="train"/>
  <circle cx="901.4" cy="836.6" r="3.2" class="train"/>
  <circle cx="947.7" cy="869.6" r="3.2" class="train"/>
  <circle cx="983.9" cy="896.4" r="3.2" class="train"/>
  <circle cx="1029.7" cy="920.8" r="3.2" class="train"/>
  <circle cx="1066.9" cy="932.7" r="3.2" class="train"/>
  <polygon points="783.7,936.9 778.2,947.9 789.2,947.9" class="validation"/>
  <polygon points="819.3,878.9 813.8,889.9 824.8,889.9" class="validation"/>
  <polygon points="854.1,833.1 848.6,844.1 859.6,844.1" class="validation"/>
  <polygon points="890.2,826.5 884.7,837.5 895.7,837.5" class="validation"/>
  <polygon points="943.6,860.8 938.1,871.8 949.1,871.8" class="validation"/>
  <polygon points="978.5,887.3 973.0,898.3 984.0,898.3" class="validation"/>
  <polygon points="1013.2,907.9 1007.7,918.9 1018.7,918.9" class="validation"/>
  <polygon points="1049.8,922.5 1044.3,933.5 1055.3,933.5" class="validation"/>
</svg>
