<svg xmlns="http://www.w3.org/2000/svg" width="960" height="520" viewBox="0 0 960 520" role="img">
<style>
  .title { font: 700 24px sans-serif; fill: #1d252c; }
  .subtitle { font: 400 14px sans-serif; fill: #4b5563; }
  .axis { stroke: #28343d; stroke-width: 1.3; }
  .grid { stroke: #d7dde3; stroke-width: 1; }
  .tick { font: 12px sans-serif; fill: #51606d; }
  .label { font: 12px sans-serif; fill: #1d252c; }
  .value { font: 700 11px sans-serif; fill: #1d252c; }
</style>
<text x="86" y="38" class="title">Runtime by Depth and Warm Budget</text>
<text x="86" y="60" class="subtitle">mean elapsed seconds</text>
<line x1="86" y1="390" x2="924" y2="390" class="axis" />
<line x1="86" y1="76" x2="86" y2="390" class="axis" />
<line x1="81" y1="390.00" x2="924" y2="390.00" class="grid" />
<text x="74" y="394.00" class="tick" text-anchor="end">0</text>
<line x1="81" y1="311.50" x2="924" y2="311.50" class="grid" />
<text x="74" y="315.50" class="tick" text-anchor="end">2.4</text>
<line x1="81" y1="233.00" x2="924" y2="233.00" class="grid" />
<text x="74" y="237.00" class="tick" text-anchor="end">4.8</text>
<line x1="81" y1="154.50" x2="924" y2="154.50" class="grid" />
<text x="74" y="158.50" class="tick" text-anchor="end">7.2</text>
<line x1="81" y1="76.00" x2="924" y2="76.00" class="grid" />
<text x="74" y="80.00" class="tick" text-anchor="end">9.6</text>
<rect x="158.75" y="355.79" width="64.00" height="34.21" fill="#2f6f8f" rx="3" />
<text x="190.75" y="347.79" class="value" text-anchor="middle">1.05s</text>
<text x="190.75" y="412" class="label" text-anchor="end" transform="rotate(-35 190.75 412)">d1 / ws12</text>
<rect x="368.25" y="355.09" width="64.00" height="34.91" fill="#d1495b" rx="3" />
<text x="400.25" y="347.09" class="value" text-anchor="middle">1.07s</text>
<text x="400.25" y="412" class="label" text-anchor="end" transform="rotate(-35 400.25 412)">d2 / ws16</text>
<rect x="577.75" y="76.00" width="64.00" height="314.00" fill="#4f8a3a" rx="3" />
<text x="609.75" y="68.00" class="value" text-anchor="middle">9.64s</text>
<text x="609.75" y="412" class="label" text-anchor="end" transform="rotate(-35 609.75 412)">d2 / ws40</text>
<rect x="787.25" y="354.72" width="64.00" height="35.28" fill="#7a5195" rx="3" />
<text x="819.25" y="346.72" class="value" text-anchor="middle">1.08s</text>
<text x="819.25" y="412" class="label" text-anchor="end" transform="rotate(-35 819.25 412)">d3 / ws20</text>
</svg>