<svg xmlns="http://www.w3.org/2000/svg" width="960" height="520" viewBox="0 0 960 520" role="img">
<style>
  .title { font: 700 24px sans-serif; fill: #1d252c; }
  .subtitle { font: 400 14px sans-serif; fill: #4b5563; }
  .axis { stroke: #28343d; stroke-width: 1.3; }
  .grid { stroke: #d7dde3; stroke-width: 1; }
  .tick { font: 12px sans-serif; fill: #51606d; }
  .label { font: 12px sans-serif; fill: #1d252c; }
  .value { font: 700 11px sans-serif; fill: #1d252c; }
</style>
<text x="86" y="38" class="title">Runtime by Depth and Warm Budget</text>
<text x="86" y="60" class="subtitle">mean elapsed seconds</text>
<line x1="86" y1="390" x2="924" y2="390" class="axis" />
<line x1="86" y1="76" x2="86" y2="390" class="axis" />
<line x1="81" y1="390.00" x2="924" y2="390.00" class="grid" />
<text x="74" y="394.00" class="tick" text-anchor="end">0</text>
<line x1="81" y1="311.50" x2="924" y2="311.50" class="grid" />
<text x="74" y="315.50" class="tick" text-anchor="end">3.1</text>
<line x1="81" y1="233.00" x2="924" y2="233.00" class="grid" />
<text x="74" y="237.00" class="tick" text-anchor="end">6.1</text>
<line x1="81" y1="154.50" x2="924" y2="154.50" class="grid" />
<text x="74" y="158.50" class="tick" text-anchor="end">9.2</text>
<line x1="81" y1="76.00" x2="924" y2="76.00" class="grid" />
<text x="74" y="80.00" class="tick" text-anchor="end">12</text>
<rect x="137.80" y="384.99" width="64.00" height="5.01" fill="#2f6f8f" rx="3" />
<text x="169.80" y="376.99" class="value" text-anchor="middle">0.20s</text>
<text x="169.80" y="412" class="label" text-anchor="end" transform="rotate(-35 169.80 412)">d1 / ws8</text>
<rect x="305.40" y="389.74" width="64.00" height="0.26" fill="#d1495b" rx="3" />
<text x="337.40" y="381.74" class="value" text-anchor="middle">0.01s</text>
<text x="337.40" y="412" class="label" text-anchor="end" transform="rotate(-35 337.40 412)">d2 / ws8</text>
<rect x="473.00" y="76.00" width="64.00" height="314.00" fill="#4f8a3a" rx="3" />
<text x="505.00" y="68.00" class="value" text-anchor="middle">12.25s</text>
<text x="505.00" y="412" class="label" text-anchor="end" transform="rotate(-35 505.00 412)">d2 / ws90</text>
<rect x="640.60" y="384.55" width="64.00" height="5.45" fill="#7a5195" rx="3" />
<text x="672.60" y="376.55" class="value" text-anchor="middle">0.21s</text>
<text x="672.60" y="412" class="label" text-anchor="end" transform="rotate(-35 672.60 412)">d3 / ws8</text>
<rect x="808.20" y="378.29" width="64.00" height="11.71" fill="#a5673f" rx="3" />
<text x="840.20" y="370.29" class="value" text-anchor="middle">0.46s</text>
<text x="840.20" y="412" class="label" text-anchor="end" transform="rotate(-35 840.20 412)">d4 / ws8</text>
</svg>