<svg xmlns="http://www.w3.org/2000/svg" width="1080" height="520" viewBox="0 0 1080 520">
<style>.title{font:700 22px Arial,sans-serif;fill:#17202a}.axis{font:12px Arial,sans-serif;fill:#34495e}.label{font:11px Arial,sans-serif;fill:#34495e}.grid{stroke:#d8dee4;stroke-width:1}.curve{fill:none;stroke-width:2;opacity:.88}.note{font:12px Arial,sans-serif;fill:#5d6d7e}</style>
<rect x="0" y="0" width="1080" height="520" fill="#ffffff"/>
<text x="70" y="36" class="title">v1.12 depth refresh loss traces</text>
<text x="70" y="56" class="note">Best restart per run; y-axis is log10(fit loss). Loss curves illustrate optimizer dynamics only.</text>
<line x1="70" y1="70.00" x2="1050" y2="70.00" class="grid"/>
<line x1="70.00" y1="70" x2="70.00" y2="450" class="grid"/>
<line x1="70" y1="146.00" x2="1050" y2="146.00" class="grid"/>
<line x1="266.00" y1="70" x2="266.00" y2="450" class="grid"/>
<line x1="70" y1="222.00" x2="1050" y2="222.00" class="grid"/>
<line x1="462.00" y1="70" x2="462.00" y2="450" class="grid"/>
<line x1="70" y1="298.00" x2="1050" y2="298.00" class="grid"/>
<line x1="658.00" y1="70" x2="658.00" y2="450" class="grid"/>
<line x1="70" y1="374.00" x2="1050" y2="374.00" class="grid"/>
<line x1="854.00" y1="70" x2="854.00" y2="450" class="grid"/>
<line x1="70" y1="450.00" x2="1050" y2="450.00" class="grid"/>
<line x1="1050.00" y1="70" x2="1050.00" y2="450" class="grid"/>
<line x1="70" y1="450" x2="1050" y2="450" stroke="#34495e" stroke-width="1.5"/>
<line x1="70" y1="70" x2="70" y2="450" stroke="#34495e" stroke-width="1.5"/>
<text x="535.00" y="496" class="axis">step</text>
<text x="16" y="260.00" transform="rotate(-90 16 260.00)" class="axis">log10 loss</text>
<polyline points="70.00,107.35 82.41,107.40 94.81,107.45 107.22,107.50 119.62,107.55 132.03,107.60 144.43,107.65 156.84,107.70 169.24,107.74 181.65,107.79 194.05,107.83 206.46,107.88 218.86,107.92 231.27,107.97 243.67,108.01 256.08,108.06 268.48,108.11 280.89,108.15 293.29,108.20 305.70,108.25 318.10,108.30 330.51,108.34 342.91,108.40 355.32,108.45 367.72,108.50 380.13,108.55 392.53,108.61 404.94,108.66 417.34,108.72 429.75,108.78 442.15,108.84 454.56,108.90 466.96,108.96 479.37,109.03 491.77,109.09 504.18,109.16 516.58,109.22 528.99,109.29 541.39,109.36 553.80,109.43 566.20,109.51 578.61,109.58 591.01,109.66 603.42,109.74 615.82,109.82 628.23,109.90 640.63,109.99 653.04,110.08 665.44,110.17 677.85,110.26 690.25,110.36 702.66,110.46 715.06,110.56 727.47,110.67 739.87,110.79 752.28,110.91 764.68,111.03 777.09,111.16 789.49,111.30 801.90,111.44 814.30,111.59 826.71,111.75 839.11,111.92 851.52,112.10 863.92,112.30 876.33,112.50 888.73,112.73 901.14,112.96 913.54,113.22 925.95,113.50 938.35,113.81 950.76,114.14 963.16,114.51 975.57,114.91 987.97,115.37 1000.38,115.87 1012.78,116.44 1025.19,117.10 1037.59,117.85 1050.00,118.73" class="curve" stroke="#1f77b4"/>
<polyline points="70.00,107.16 82.41,107.21 94.81,107.26 107.22,107.31 119.62,107.36 132.03,107.41 144.43,107.46 156.84,107.51 169.24,107.56 181.65,107.61 194.05,107.65 206.46,107.70 218.86,107.74 231.27,107.79 243.67,107.83 256.08,107.87 268.48,107.91 280.89,107.95 293.29,108.00 305.70,108.04 318.10,108.08 330.51,108.12 342.91,108.16 355.32,108.20 367.72,108.24 380.13,108.29 392.53,108.33 404.94,108.37 417.34,108.42 429.75,108.46 442.15,108.51 454.56,108.55 466.96,108.60 479.37,108.65 491.77,108.69 504.18,108.74 516.58,108.79 528.99,108.85 541.39,108.90 553.80,108.95 566.20,109.01 578.61,109.06 591.01,109.12 603.42,109.18 615.82,109.24 628.23,109.31 640.63,109.37 653.04,109.44 665.44,109.51 677.85,109.58 690.25,109.65 702.66,109.73 715.06,109.81 727.47,109.89 739.87,109.98 752.28,110.06 764.68,110.16 777.09,110.25 789.49,110.35 801.90,110.46 814.30,110.57 826.71,110.69 839.11,110.81 851.52,110.94 863.92,111.08 876.33,111.22 888.73,111.38 901.14,111.54 913.54,111.72 925.95,111.92 938.35,112.13 950.76,112.35 963.16,112.60 975.57,112.88 987.97,113.19 1000.38,113.53 1012.78,113.91 1025.19,114.36 1037.59,114.87 1050.00,115.46" class="curve" stroke="#d62728"/>
<polyline points="70.00,135.60 82.41,135.95 94.81,136.30 107.22,136.67 119.62,137.04 132.03,137.43 144.43,137.82 156.84,138.22 169.24,138.63 181.65,139.05 194.05,139.48 206.46,139.91 218.86,140.39 231.27,140.82 243.67,141.29 256.08,141.85 268.48,142.15 280.89,143.37 293.29,143.10 305.70,143.19 318.10,450.00 330.51,450.00 342.91,450.00 355.32,450.00 367.72,450.00 380.13,450.00 392.53,450.00 404.94,450.00 417.34,450.00 429.75,450.00 442.15,450.00 454.56,450.00 466.96,450.00 479.37,450.00 491.77,450.00 504.18,450.00 516.58,450.00 528.99,450.00 541.39,450.00 553.80,450.00 566.20,450.00 578.61,450.00 591.01,450.00 603.42,450.00 615.82,450.00 628.23,450.00 640.63,450.00 653.04,450.00 665.44,450.00 677.85,450.00 690.25,450.00 702.66,450.00 715.06,450.00 727.47,450.00 739.87,450.00 752.28,450.00 764.68,450.00 777.09,450.00 789.49,450.00 801.90,450.00 814.30,450.00 826.71,450.00 839.11,450.00 851.52,450.00 863.92,450.00 876.33,450.00 888.73,450.00 901.14,450.00 913.54,450.00 925.95,450.00 938.35,450.00 950.76,450.00 963.16,450.00 975.57,450.00 987.97,450.00 1000.38,450.00 1012.78,450.00 1025.19,450.00 1037.59,450.00 1050.00,450.00" class="curve" stroke="#2ca02c"/>
<polyline points="70.00,135.59 82.41,135.94 94.81,136.29 107.22,136.65 119.62,137.02 132.03,137.40 144.43,137.78 156.84,138.18 169.24,138.58 181.65,138.99 194.05,139.42 206.46,139.84 218.86,140.30 231.27,140.73 243.67,141.18 256.08,141.73 268.48,142.10 280.89,143.06 293.29,142.99 305.70,143.12 318.10,143.73 330.51,450.00 342.91,450.00 355.32,450.00 367.72,450.00 380.13,450.00 392.53,450.00 404.94,450.00 417.34,450.00 429.75,450.00 442.15,450.00 454.56,450.00 466.96,450.00 479.37,450.00 491.77,450.00 504.18,450.00 516.58,450.00 528.99,450.00 541.39,450.00 553.80,450.00 566.20,450.00 578.61,450.00 591.01,450.00 603.42,450.00 615.82,450.00 628.23,450.00 640.63,450.00 653.04,450.00 665.44,450.00 677.85,450.00 690.25,450.00 702.66,450.00 715.06,450.00 727.47,450.00 739.87,450.00 752.28,450.00 764.68,450.00 777.09,450.00 789.49,450.00 801.90,450.00 814.30,450.00 826.71,450.00 839.11,450.00 851.52,450.00 863.92,450.00 876.33,450.00 888.73,450.00 901.14,450.00 913.54,450.00 925.95,450.00 938.35,450.00 950.76,450.00 963.16,450.00 975.57,450.00 987.97,450.00 1000.38,450.00 1012.78,450.00 1025.19,450.00 1037.59,450.00 1050.00,450.00" class="curve" stroke="#9467bd"/>
<polyline points="70.00,109.82 82.41,109.82 94.81,109.82 107.22,109.82 119.62,109.82 132.03,109.82 144.43,109.82 156.84,109.82 169.24,109.82 181.65,109.82 194.05,109.82 206.46,109.82 218.86,109.82 231.27,109.82 243.67,109.82 256.08,109.82 268.48,109.82 280.89,109.82 293.29,109.82 305.70,109.82 318.10,109.82 330.51,109.82 342.91,109.82 355.32,109.82 367.72,109.82 380.13,109.82 392.53,109.82 404.94,109.82 417.34,109.82 429.75,109.82 442.15,109.82 454.56,109.82 466.96,109.82 479.37,109.82 491.77,109.82 504.18,109.82 516.58,109.82 528.99,109.82 541.39,109.82 553.80,109.82 566.20,109.82 578.61,109.82 591.01,109.82 603.42,109.82 615.82,109.82 628.23,109.82 640.63,109.82 653.04,109.82 665.44,109.82 677.85,109.82 690.25,109.82 702.66,109.82 715.06,109.82 727.47,109.82 739.87,109.82 752.28,109.82 764.68,109.82 777.09,109.82 789.49,109.82 801.90,109.82 814.30,109.82 826.71,109.82 839.11,109.82 851.52,109.82 863.92,109.82 876.33,109.82 888.73,109.82 901.14,109.82 913.54,109.82 925.95,109.82 938.35,109.82 950.76,109.82 963.16,109.82 975.57,109.82 987.97,109.82 1000.38,109.82 1012.78,109.82 1025.19,109.82 1037.59,109.82 1050.00,109.82" class="curve" stroke="#8c564b"/>
<polyline points="70.00,109.82 82.41,109.82 94.81,109.82 107.22,109.82 119.62,109.82 132.03,109.82 144.43,109.82 156.84,109.82 169.24,109.82 181.65,109.82 194.05,109.82 206.46,109.82 218.86,109.82 231.27,109.82 243.67,109.82 256.08,109.82 268.48,109.82 280.89,109.82 293.29,109.82 305.70,109.82 318.10,109.82 330.51,109.82 342.91,109.82 355.32,109.82 367.72,109.82 380.13,109.82 392.53,109.82 404.94,109.82 417.34,109.82 429.75,109.82 442.15,109.82 454.56,109.82 466.96,109.82 479.37,109.82 491.77,109.82 504.18,109.82 516.58,109.82 528.99,109.82 541.39,109.82 553.80,109.82 566.20,109.82 578.61,109.82 591.01,109.82 603.42,109.82 615.82,109.82 628.23,109.82 640.63,109.82 653.04,109.82 665.44,109.82 677.85,109.82 690.25,109.82 702.66,109.82 715.06,109.82 727.47,109.82 739.87,109.82 752.28,109.82 764.68,109.82 777.09,109.82 789.49,109.82 801.90,109.82 814.30,109.82 826.71,109.82 839.11,109.82 851.52,109.82 863.92,109.82 876.33,109.82 888.73,109.82 901.14,109.82 913.54,109.82 925.95,109.82 938.35,109.82 950.76,109.82 963.16,109.82 975.57,109.82 987.97,109.82 1000.38,109.82 1012.78,109.82 1025.19,109.82 1037.59,109.82 1050.00,109.82" class="curve" stroke="#17becf"/>
<polyline points="70.00,70.00 82.41,70.17 94.81,70.42 107.22,70.62 119.62,70.96 132.03,107.74 144.43,107.95 156.84,107.98 169.24,108.02 181.65,108.07 194.05,108.15 206.46,108.23 218.86,108.32 231.27,108.41 243.67,108.53 256.08,108.64 268.48,108.67 280.89,108.68 293.29,108.58 305.70,108.44 318.10,108.27 330.51,108.12 342.91,107.98 355.32,107.87 367.72,107.78 380.13,107.72 392.53,107.68 404.94,107.65 417.34,107.64 429.75,107.63 442.15,107.63 454.56,107.62 466.96,107.62 479.37,107.62 491.77,107.62 504.18,107.62 516.58,107.62 528.99,107.62 541.39,107.62 553.80,107.62 566.20,107.62 578.61,107.62 591.01,107.62 603.42,107.62 615.82,107.62 628.23,107.62 640.63,107.62 653.04,107.62 665.44,107.62 677.85,107.62 690.25,107.62 702.66,107.62 715.06,107.62 727.47,107.62 739.87,107.62 752.28,107.62 764.68,107.62 777.09,107.62 789.49,107.62 801.90,107.62 814.30,107.62 826.71,107.62 839.11,107.62 851.52,107.62 863.92,107.62 876.33,107.62 888.73,107.62 901.14,107.62 913.54,107.62 925.95,107.62 938.35,107.62 950.76,107.62 963.16,107.62 975.57,107.62 987.97,107.62 1000.38,107.62 1012.78,107.62 1025.19,107.62 1037.59,107.62 1050.00,107.62" class="curve" stroke="#bcbd22"/>
<polyline points="70.00,107.56 82.41,107.62 94.81,107.63 107.22,107.71 119.62,107.80 132.03,107.88 144.43,107.96 156.84,108.03 169.24,108.09 181.65,108.17 194.05,108.26 206.46,108.37 218.86,108.49 231.27,108.55 243.67,108.62 256.08,108.58 268.48,108.50 280.89,108.39 293.29,108.24 305.70,108.11 318.10,107.99 330.51,107.89 342.91,107.81 355.32,107.74 367.72,107.70 380.13,107.67 392.53,107.65 404.94,107.64 417.34,107.63 429.75,107.63 442.15,107.62 454.56,107.62 466.96,107.62 479.37,107.62 491.77,107.62 504.18,107.62 516.58,107.62 528.99,107.62 541.39,107.62 553.80,107.62 566.20,107.62 578.61,107.62 591.01,107.62 603.42,107.62 615.82,107.62 628.23,107.62 640.63,107.62 653.04,107.62 665.44,107.62 677.85,107.62 690.25,107.62 702.66,107.62 715.06,107.62 727.47,107.62 739.87,107.62 752.28,107.62 764.68,107.62 777.09,107.62 789.49,107.62 801.90,107.62 814.30,107.62 826.71,107.62 839.11,107.62 851.52,107.62 863.92,107.62 876.33,107.62 888.73,107.62 901.14,107.62 913.54,107.62 925.95,107.62 938.35,107.62 950.76,107.62 963.16,107.62 975.57,107.62 987.97,107.62 1000.38,107.62 1012.78,107.62 1025.19,107.62 1037.59,107.62 1050.00,107.62" class="curve" stroke="#ff7f0e"/>
<text x="70" y="475" class="note">Traced runs: 8. Full data: training-step-traces.csv/json.</text>
</svg>