<svg xmlns="http://www.w3.org/2000/svg" width="1080" height="520" viewBox="0 0 1080 520">
<style>.title{font:700 22px Arial,sans-serif;fill:#17202a}.axis{font:12px Arial,sans-serif;fill:#34495e}.label{font:11px Arial,sans-serif;fill:#34495e}.grid{stroke:#d8dee4;stroke-width:1}.curve{fill:none;stroke-width:2;opacity:.88}.note{font:12px Arial,sans-serif;fill:#5d6d7e}</style>
<rect x="0" y="0" width="1080" height="520" fill="#ffffff"/>
<text x="70" y="36" class="title">v1.12 shallow refresh loss traces</text>
<text x="70" y="56" class="note">Best restart per run; y-axis is log10(fit loss). Loss curves illustrate optimizer dynamics only.</text>
<line x1="70" y1="70.00" x2="1050" y2="70.00" class="grid"/>
<line x1="70.00" y1="70" x2="70.00" y2="450" class="grid"/>
<line x1="70" y1="146.00" x2="1050" y2="146.00" class="grid"/>
<line x1="266.00" y1="70" x2="266.00" y2="450" class="grid"/>
<line x1="70" y1="222.00" x2="1050" y2="222.00" class="grid"/>
<line x1="462.00" y1="70" x2="462.00" y2="450" class="grid"/>
<line x1="70" y1="298.00" x2="1050" y2="298.00" class="grid"/>
<line x1="658.00" y1="70" x2="658.00" y2="450" class="grid"/>
<line x1="70" y1="374.00" x2="1050" y2="374.00" class="grid"/>
<line x1="854.00" y1="70" x2="854.00" y2="450" class="grid"/>
<line x1="70" y1="450.00" x2="1050" y2="450.00" class="grid"/>
<line x1="1050.00" y1="70" x2="1050.00" y2="450" class="grid"/>
<line x1="70" y1="450" x2="1050" y2="450" stroke="#34495e" stroke-width="1.5"/>
<line x1="70" y1="70" x2="70" y2="450" stroke="#34495e" stroke-width="1.5"/>
<text x="535.00" y="496" class="axis">step</text>
<text x="16" y="260.00" transform="rotate(-90 16 260.00)" class="axis">log10 loss</text>
<polyline points="70.00,70.15 82.41,70.22 94.81,70.29 107.22,70.35 119.62,70.41 132.03,70.47 144.43,70.53 156.84,70.59 169.24,70.65 181.65,70.71 194.05,70.77 206.46,70.83 218.86,70.89 231.27,70.94 243.67,71.00 256.08,71.06 268.48,71.12 280.89,71.18 293.29,71.24 305.70,71.29 318.10,71.35 330.51,71.41 342.91,71.47 355.32,71.53 367.72,71.59 380.13,71.65 392.53,71.71 404.94,71.77 417.34,71.83 429.75,71.89 442.15,71.95 454.56,72.01 466.96,72.07 479.37,72.13 491.77,72.20 504.18,72.26 516.58,72.33 528.99,72.39 541.39,72.46 553.80,72.53 566.20,72.60 578.61,72.67 591.01,72.75 603.42,72.82 615.82,72.90 628.23,72.98 640.63,73.07 653.04,73.15 665.44,73.24 677.85,73.33 690.25,73.43 702.66,73.53 715.06,73.64 727.47,73.74 739.87,73.86 752.28,73.98 764.68,74.11 777.09,74.24 789.49,74.38 801.90,74.53 814.30,74.69 826.71,74.86 839.11,75.03 851.52,75.23 863.92,75.43 876.33,75.65 888.73,75.89 901.14,76.15 913.54,76.43 925.95,76.74 938.35,77.07 950.76,77.44 963.16,77.85 975.57,78.31 987.97,78.81 1000.38,79.39 1012.78,80.04 1025.19,80.79 1037.59,81.66 1050.00,82.68" class="curve" stroke="#1f77b4"/>
<polyline points="70.00,70.12 82.41,70.19 94.81,70.25 107.22,70.32 119.62,70.38 132.03,70.44 144.43,70.49 156.84,70.55 169.24,70.61 181.65,70.67 194.05,70.73 206.46,70.78 218.86,70.84 231.27,70.90 243.67,70.96 256.08,71.01 268.48,71.07 280.89,71.13 293.29,71.19 305.70,71.25 318.10,71.30 330.51,71.36 342.91,71.42 355.32,71.48 367.72,71.54 380.13,71.60 392.53,71.66 404.94,71.72 417.34,71.78 429.75,71.84 442.15,71.90 454.56,71.96 466.96,72.02 479.37,72.08 491.77,72.15 504.18,72.21 516.58,72.28 528.99,72.34 541.39,72.41 553.80,72.48 566.20,72.55 578.61,72.62 591.01,72.70 603.42,72.77 615.82,72.85 628.23,72.93 640.63,73.01 653.04,73.10 665.44,73.19 677.85,73.28 690.25,73.38 702.66,73.48 715.06,73.58 727.47,73.69 739.87,73.81 752.28,73.93 764.68,74.05 777.09,74.19 789.49,74.33 801.90,74.48 814.30,74.63 826.71,74.80 839.11,74.98 851.52,75.17 863.92,75.38 876.33,75.60 888.73,75.84 901.14,76.10 913.54,76.38 925.95,76.69 938.35,77.02 950.76,77.39 963.16,77.81 975.57,78.26 987.97,78.78 1000.38,79.35 1012.78,80.01 1025.19,80.77 1037.59,81.64 1050.00,82.67" class="curve" stroke="#d62728"/>
<polyline points="70.00,70.21 82.41,70.27 94.81,70.33 107.22,70.39 119.62,70.45 132.03,70.50 144.43,70.56 156.84,70.62 169.24,70.68 181.65,70.74 194.05,70.80 206.46,70.86 218.86,70.91 231.27,70.97 243.67,71.03 256.08,71.09 268.48,71.15 280.89,71.21 293.29,71.27 305.70,71.33 318.10,71.39 330.51,71.45 342.91,71.51 355.32,71.58 367.72,71.64 380.13,71.70 392.53,71.76 404.94,71.82 417.34,71.88 429.75,71.95 442.15,72.01 454.56,72.08 466.96,72.14 479.37,72.21 491.77,72.27 504.18,72.34 516.58,72.41 528.99,72.48 541.39,72.55 553.80,72.62 566.20,72.70 578.61,72.77 591.01,72.85 603.42,72.93 615.82,73.01 628.23,73.10 640.63,73.18 653.04,73.27 665.44,73.37 677.85,73.46 690.25,73.57 702.66,73.67 715.06,73.78 727.47,73.90 739.87,74.02 752.28,74.14 764.68,74.28 777.09,74.42 789.49,74.57 801.90,74.72 814.30,74.89 826.71,75.07 839.11,75.26 851.52,75.46 863.92,75.68 876.33,75.92 888.73,76.17 901.14,76.45 913.54,76.75 925.95,77.08 938.35,77.44 950.76,77.83 963.16,78.27 975.57,78.76 987.97,79.31 1000.38,79.93 1012.78,80.64 1025.19,81.45 1037.59,82.39 1050.00,83.50" class="curve" stroke="#2ca02c"/>
<polyline points="70.00,70.00 82.41,70.07 94.81,70.14 107.22,70.20 119.62,70.26 132.03,70.32 144.43,70.37 156.84,70.43 169.24,70.49 181.65,70.54 194.05,70.59 206.46,70.65 218.86,70.70 231.27,70.76 243.67,70.81 256.08,70.87 268.48,70.92 280.89,70.97 293.29,71.03 305.70,71.08 318.10,71.14 330.51,71.19 342.91,71.25 355.32,71.31 367.72,71.36 380.13,71.42 392.53,71.47 404.94,71.53 417.34,71.59 429.75,71.64 442.15,71.70 454.56,71.76 466.96,71.82 479.37,71.88 491.77,71.94 504.18,72.00 516.58,72.06 528.99,72.13 541.39,72.19 553.80,72.26 566.20,72.32 578.61,72.39 591.01,72.46 603.42,72.53 615.82,72.61 628.23,72.68 640.63,72.76 653.04,72.84 665.44,72.93 677.85,73.01 690.25,73.10 702.66,73.20 715.06,73.30 727.47,73.40 739.87,73.50 752.28,73.62 764.68,73.73 777.09,73.86 789.49,73.99 801.90,74.13 814.30,74.28 826.71,74.43 839.11,74.60 851.52,74.78 863.92,74.97 876.33,75.18 888.73,75.40 901.14,75.64 913.54,75.90 925.95,76.19 938.35,76.50 950.76,76.84 963.16,77.22 975.57,77.65 987.97,78.13 1000.38,78.66 1012.78,79.27 1025.19,79.97 1037.59,80.79 1050.00,81.74" class="curve" stroke="#9467bd"/>
<polyline points="70.00,70.15 82.41,70.22 94.81,70.29 107.22,70.35 119.62,70.41 132.03,70.47 144.43,70.53 156.84,70.59 169.24,70.65 181.65,70.71 194.05,70.77 206.46,70.83 218.86,70.88 231.27,70.94 243.67,71.00 256.08,71.06 268.48,71.12 280.89,71.18 293.29,71.23 305.70,71.29 318.10,71.35 330.51,71.41 342.91,71.47 355.32,71.53 367.72,71.59 380.13,71.65 392.53,71.70 404.94,71.76 417.34,71.82 429.75,71.88 442.15,71.94 454.56,72.01 466.96,72.07 479.37,72.13 491.77,72.19 504.18,72.26 516.58,72.32 528.99,72.39 541.39,72.46 553.80,72.53 566.20,72.60 578.61,72.67 591.01,72.74 603.42,72.82 615.82,72.90 628.23,72.98 640.63,73.06 653.04,73.15 665.44,73.24 677.85,73.33 690.25,73.43 702.66,73.53 715.06,73.63 727.47,73.74 739.87,73.85 752.28,73.97 764.68,74.10 777.09,74.23 789.49,74.37 801.90,74.52 814.30,74.68 826.71,74.85 839.11,75.03 851.52,75.22 863.92,75.43 876.33,75.65 888.73,75.88 901.14,76.14 913.54,76.42 925.95,76.73 938.35,77.06 950.76,77.43 963.16,77.84 975.57,78.29 987.97,78.80 1000.38,79.37 1012.78,80.03 1025.19,80.77 1037.59,81.64 1050.00,82.66" class="curve" stroke="#8c564b"/>
<polyline points="70.00,102.80 82.41,103.55 94.81,104.34 107.22,105.18 119.62,106.04 132.03,106.93 144.43,107.91 156.84,108.77 169.24,109.62 181.65,111.36 194.05,450.00 206.46,450.00 218.86,450.00 231.27,450.00 243.67,450.00 256.08,450.00 268.48,450.00 280.89,450.00 293.29,450.00 305.70,450.00 318.10,450.00 330.51,450.00 342.91,450.00 355.32,450.00 367.72,450.00 380.13,450.00 392.53,450.00 404.94,450.00 417.34,450.00 429.75,450.00 442.15,450.00 454.56,450.00 466.96,450.00 479.37,450.00 491.77,450.00 504.18,450.00 516.58,450.00 528.99,450.00 541.39,450.00 553.80,450.00" class="curve" stroke="#17becf"/>
<polyline points="70.00,102.80 82.41,103.55 94.81,104.34 107.22,105.18 119.62,106.04 132.03,106.93 144.43,107.91 156.84,108.80 169.24,109.70 181.65,111.47 194.05,450.00 206.46,450.00 218.86,450.00 231.27,450.00 243.67,450.00 256.08,450.00 268.48,450.00 280.89,450.00 293.29,450.00 305.70,450.00 318.10,450.00 330.51,450.00 342.91,450.00 355.32,450.00 367.72,450.00 380.13,450.00 392.53,450.00 404.94,450.00 417.34,450.00 429.75,450.00 442.15,450.00 454.56,450.00 466.96,450.00 479.37,450.00 491.77,450.00 504.18,450.00 516.58,450.00 528.99,450.00 541.39,450.00 553.80,450.00" class="curve" stroke="#bcbd22"/>
<polyline points="70.00,102.80 82.41,103.55 94.81,104.34 107.22,105.18 119.62,106.04 132.03,106.93 144.43,107.91 156.84,108.76 169.24,109.62 181.65,111.19 194.05,450.00 206.46,450.00 218.86,450.00 231.27,450.00 243.67,450.00 256.08,450.00 268.48,450.00 280.89,450.00 293.29,450.00 305.70,450.00 318.10,450.00 330.51,450.00 342.91,450.00 355.32,450.00 367.72,450.00 380.13,450.00 392.53,450.00 404.94,450.00 417.34,450.00 429.75,450.00 442.15,450.00 454.56,450.00 466.96,450.00 479.37,450.00 491.77,450.00 504.18,450.00 516.58,450.00 528.99,450.00 541.39,450.00 553.80,450.00" class="curve" stroke="#ff7f0e"/>
<polyline points="70.00,102.80 82.41,103.55 94.81,104.34 107.22,105.18 119.62,106.04 132.03,106.93 144.43,107.90 156.84,108.77 169.24,109.65 181.65,111.36 194.05,112.67 206.46,450.00 218.86,450.00 231.27,450.00 243.67,450.00 256.08,450.00 268.48,450.00 280.89,450.00 293.29,450.00 305.70,450.00 318.10,450.00 330.51,450.00 342.91,450.00 355.32,450.00 367.72,450.00 380.13,450.00 392.53,450.00 404.94,450.00 417.34,450.00 429.75,450.00 442.15,450.00 454.56,450.00 466.96,450.00 479.37,450.00 491.77,450.00 504.18,450.00 516.58,450.00 528.99,450.00 541.39,450.00 553.80,450.00" class="curve" stroke="#7f7f7f"/>
<polyline points="70.00,102.80 82.41,103.55 94.81,104.34 107.22,105.18 119.62,106.04 132.03,106.93 144.43,107.91 156.84,108.79 169.24,109.70 181.65,112.29 194.05,112.67 206.46,112.67 218.86,450.00 231.27,450.00 243.67,450.00 256.08,450.00 268.48,450.00 280.89,450.00 293.29,450.00 305.70,450.00 318.10,450.00 330.51,450.00 342.91,450.00 355.32,450.00 367.72,450.00 380.13,450.00 392.53,450.00 404.94,450.00 417.34,450.00 429.75,450.00 442.15,450.00 454.56,450.00 466.96,450.00 479.37,450.00 491.77,450.00 504.18,450.00 516.58,450.00 528.99,450.00 541.39,450.00 553.80,450.00" class="curve" stroke="#e377c2"/>
<text x="70" y="475" class="note">Traced runs: 10. Full data: training-step-traces.csv/json.</text>
</svg>