<svg xmlns="http://www.w3.org/2000/svg" width="960" height="520" viewBox="0 0 960 520" role="img">
<style>.title{font:700 22px Arial,sans-serif;fill:#17202a}.note{font:12px Arial,sans-serif;fill:#34495e}.label{font:11px Arial,sans-serif;fill:#34495e}.grid{stroke:#edf2f4;stroke-width:1}.bar{opacity:.92}</style>
<text x="34" y="36" class="title">Branch Diagnostics</text>
<text x="34" y="58" class="note">Counts remain visible even when they weaken the i*pi interpretation.</text>
<line x1="220.0" y1="74" x2="220.0" y2="486" class="grid"/>
<line x1="385.0" y1="74" x2="385.0" y2="486" class="grid"/>
<line x1="550.0" y1="74" x2="550.0" y2="486" class="grid"/>
<line x1="715.0" y1="74" x2="715.0" y2="486" class="grid"/>
<line x1="880.0" y1="74" x2="880.0" y2="486" class="grid"/>
<text x="34" y="101" class="label">raw branch cuts</text>
<rect x="220" y="86" width="554.6" height="34" class="bar" fill="#457b9d"/>
<text x="782.6" y="101" class="label">100</text>
<text x="34" y="143" class="label">raw proximity</text>
<rect x="220" y="128" width="554.6" height="34" class="bar" fill="#a8dadc"/>
<text x="782.6" y="143" class="label">100</text>
<text x="34" y="185" class="label">raw crossings</text>
<rect x="220" y="170" width="0.0" height="34" class="bar" fill="#1d3557"/>
<text x="228.0" y="185" class="label">0</text>
<text x="34" y="227" class="label">i*pi branch cuts</text>
<rect x="220" y="212" width="499.2" height="34" class="bar" fill="#f4a261"/>
<text x="727.2" y="227" class="label">90.0</text>
<text x="34" y="269" class="label">i*pi proximity</text>
<rect x="220" y="254" width="660.0" height="34" class="bar" fill="#e9c46a"/>
<text x="888.0" y="269" class="label">119</text>
<text x="34" y="311" class="label">i*pi crossings</text>
<rect x="220" y="296" width="22.2" height="34" class="bar" fill="#e76f51"/>
<text x="250.2" y="311" class="label">4</text>
</svg>