<svg xmlns="http://www.w3.org/2000/svg" width="960" height="520" viewBox="0 0 960 520" role="img">
<style>
  .title { font: 700 24px sans-serif; fill: #1d252c; }
  .subtitle { font: 400 14px sans-serif; fill: #4b5563; }
  .axis { stroke: #28343d; stroke-width: 1.3; }
  .grid { stroke: #d7dde3; stroke-width: 1; }
  .tick { font: 12px sans-serif; fill: #51606d; }
  .label { font: 12px sans-serif; fill: #1d252c; }
  .value { font: 700 11px sans-serif; fill: #1d252c; }
</style>
<text x="86" y="38" class="title">Training Loss Before and After Snap</text>
<text x="86" y="60" class="subtitle">-log10(loss), higher is lower loss</text>
<line x1="86" y1="390" x2="924" y2="390" class="axis" />
<line x1="86" y1="76" x2="86" y2="390" class="axis" />
<line x1="81" y1="390.00" x2="924" y2="390.00" class="grid" />
<text x="74" y="394.00" class="tick" text-anchor="end">0</text>
<line x1="81" y1="311.50" x2="924" y2="311.50" class="grid" />
<text x="74" y="315.50" class="tick" text-anchor="end">4</text>
<line x1="81" y1="233.00" x2="924" y2="233.00" class="grid" />
<text x="74" y="237.00" class="tick" text-anchor="end">8</text>
<line x1="81" y1="154.50" x2="924" y2="154.50" class="grid" />
<text x="74" y="158.50" class="tick" text-anchor="end">12</text>
<line x1="81" y1="76.00" x2="924" y2="76.00" class="grid" />
<text x="74" y="80.00" class="tick" text-anchor="end">16</text>
<rect x="97.00" y="363.14" width="30.38" height="26.86" fill="#2f6f8f" rx="3" />
<text x="112.19" y="355.14" class="value" text-anchor="middle">4.3e-02</text>
<text x="112.19" y="412" class="label" text-anchor="end" transform="rotate(-35 112.19 412)">exp s0 best</text>
<rect x="149.37" y="76.00" width="30.38" height="314.00" fill="#d1495b" rx="3" />
<text x="164.56" y="68.00" class="value" text-anchor="middle">0.0e+00</text>
<text x="164.56" y="412" class="label" text-anchor="end" transform="rotate(-35 164.56 412)">exp s0 snap</text>
<rect x="201.75" y="216.39" width="30.38" height="173.61" fill="#4f8a3a" rx="3" />
<text x="216.94" y="208.39" class="value" text-anchor="middle">1.4e-09</text>
<text x="216.94" y="412" class="label" text-anchor="end" transform="rotate(-35 216.94 412)">exp s1 best</text>
<rect x="254.12" y="76.00" width="30.38" height="314.00" fill="#7a5195" rx="3" />
<text x="269.31" y="68.00" class="value" text-anchor="middle">0.0e+00</text>
<text x="269.31" y="412" class="label" text-anchor="end" transform="rotate(-35 269.31 412)">exp s1 snap</text>
<rect x="306.50" y="76.00" width="30.38" height="314.00" fill="#a5673f" rx="3" />
<text x="321.69" y="68.00" class="value" text-anchor="middle">0.0e+00</text>
<text x="321.69" y="412" class="label" text-anchor="end" transform="rotate(-35 321.69 412)">exp s0 best</text>
<rect x="358.87" y="76.00" width="30.38" height="314.00" fill="#1f8a70" rx="3" />
<text x="374.06" y="68.00" class="value" text-anchor="middle">0.0e+00</text>
<text x="374.06" y="412" class="label" text-anchor="end" transform="rotate(-35 374.06 412)">exp s0 snap</text>
<rect x="411.25" y="76.00" width="30.38" height="314.00" fill="#2f6f8f" rx="3" />
<text x="426.44" y="68.00" class="value" text-anchor="middle">0.0e+00</text>
<text x="426.44" y="412" class="label" text-anchor="end" transform="rotate(-35 426.44 412)">exp s1 best</text>
<rect x="463.62" y="76.00" width="30.38" height="314.00" fill="#d1495b" rx="3" />
<text x="478.81" y="68.00" class="value" text-anchor="middle">0.0e+00</text>
<text x="478.81" y="412" class="label" text-anchor="end" transform="rotate(-35 478.81 412)">exp s1 snap</text>
<rect x="516.00" y="76.00" width="30.38" height="314.00" fill="#4f8a3a" rx="3" />
<text x="531.19" y="68.00" class="value" text-anchor="middle">1.2e-30</text>
<text x="531.19" y="412" class="label" text-anchor="end" transform="rotate(-35 531.19 412)">shockley s0 best</text>
<rect x="568.37" y="76.00" width="30.38" height="314.00" fill="#7a5195" rx="3" />
<text x="583.56" y="68.00" class="value" text-anchor="middle">1.2e-30</text>
<text x="583.56" y="412" class="label" text-anchor="end" transform="rotate(-35 583.56 412)">shockley s0 snap</text>
<rect x="620.75" y="76.00" width="30.38" height="314.00" fill="#a5673f" rx="3" />
<text x="635.94" y="68.00" class="value" text-anchor="middle">9.4e-33</text>
<text x="635.94" y="412" class="label" text-anchor="end" transform="rotate(-35 635.94 412)">arrhenius s0 best</text>
<rect x="673.12" y="76.00" width="30.38" height="314.00" fill="#1f8a70" rx="3" />
<text x="688.31" y="68.00" class="value" text-anchor="middle">9.4e-33</text>
<text x="688.31" y="412" class="label" text-anchor="end" transform="rotate(-35 688.31 412)">arrhenius s0 snap</text>
<rect x="725.50" y="76.00" width="30.38" height="314.00" fill="#2f6f8f" rx="3" />
<text x="740.69" y="68.00" class="value" text-anchor="middle">1.1e-31</text>
<text x="740.69" y="412" class="label" text-anchor="end" transform="rotate(-35 740.69 412)">michaelis_menten s0 best</text>
<rect x="777.87" y="76.00" width="30.38" height="314.00" fill="#d1495b" rx="3" />
<text x="793.06" y="68.00" class="value" text-anchor="middle">1.1e-31</text>
<text x="793.06" y="412" class="label" text-anchor="end" transform="rotate(-35 793.06 412)">michaelis_menten s0 snap</text>
<rect x="830.25" y="76.00" width="30.38" height="314.00" fill="#4f8a3a" rx="3" />
<text x="845.44" y="68.00" class="value" text-anchor="middle">1.2e-208</text>
<text x="845.44" y="412" class="label" text-anchor="end" transform="rotate(-35 845.44 412)">basin_depth2_exp_exp s0 best</text>
<rect x="882.62" y="76.00" width="30.38" height="314.00" fill="#7a5195" rx="3" />
<text x="897.81" y="68.00" class="value" text-anchor="middle">0.0e+00</text>
<text x="897.81" y="412" class="label" text-anchor="end" transform="rotate(-35 897.81 412)">basin_depth2_exp_exp s0 snap</text>
</svg>